<svg width="150" height="137" viewBox="0 0 150 137" fill="none" xmlns="http://www.w3.org/2000/svg">
<path d="M135.078 23.7103H138.067M131.86 21.1814V17.9629M129.331 23.7103H126.112M132.319 26.469V28.9978" stroke="#E29186" stroke-width="2.75385" stroke-linecap="round"/>
<path d="M87.1538 104.937H91.5301M82.441 101.234V96.5215M78.7381 104.937H74.0252M83.1143 108.977V112.68" stroke="#E29186" stroke-width="2.75385" stroke-linecap="round"/>
<path opacity="0.5" d="M0.589722 79.6085L68.5513 40.234C84.9484 31.1724 88.5083 41.3127 86.3508 48.864L61 116.286L0.589722 79.6085Z" fill="white"/>
<path d="M124.913 112.962C124.629 112.87 124.359 112.798 124.107 112.746C112.013 110.279 100.21 113.371 103.61 121.376C104.772 124.111 106.946 125.278 109.551 125.542C116.703 126.268 122.154 119.806 124.913 112.962C125.203 112.245 125.462 111.523 125.692 110.805C126.574 108.036 127.518 105.026 128.422 101.958C131.846 90.3312 132.737 78.7652 142.985 71.7533C130.459 63.2942 104.657 45.9354 97.6197 39.8301C102.745 29.9567 100.402 29.0004 97.6771 25.3668C79.8776 22.1306 92.2833 33.4457 96.059 38.3001C96.3466 38.6699 96.8793 39.1877 97.6197 39.8301C104.657 45.9354 130.459 63.2942 142.985 71.7533C132.737 78.7652 131.846 90.3312 128.422 101.958C127.518 105.026 126.574 108.036 125.692 110.805C125.462 111.523 125.203 112.245 124.913 112.962Z" fill="white"/>
<path d="M7.06167 135.4H148.379C146.94 128.208 130.382 114.026 124.107 112.746C112.013 110.279 100.21 113.371 103.61 121.376C104.772 124.111 106.946 125.278 109.551 125.542C117.453 126.344 123.278 118.372 125.692 110.805C126.574 108.036 127.518 105.026 128.422 101.958C131.846 90.3312 132.737 78.7652 142.985 71.7533C129.141 62.4041 99.0795 42.1836 96.059 38.3001C92.2833 33.4457 79.8776 22.1306 97.6771 25.3668C100.913 29.6818 103.61 30.2212 93.9015 46.4025C86.1344 59.3476 88.8673 67.9776 91.2046 70.6745L53.9875 34.5362C60.1005 35.9745 73.7287 36.8016 79.3383 28.6031" stroke="#FFCC00" stroke-width="2.29487"/>
<g opacity="0.2">
<path d="M31.0948 13.6687C31.1681 13.5059 31.2383 13.2889 31.308 13.0286C29.9893 9.99637 28.4182 7.18564 27.0579 5.71565C26.6522 5.27721 26.1149 4.9801 25.5285 4.8663C22.7143 4.32022 22.7935 6.68339 22.9916 7.95819C23.2083 9.35293 23.1403 13.3532 21.7925 17.1213C20.4447 20.8894 20.5429 20.7799 21.0019 21.7018C21.4217 22.5448 22.2916 22.2177 19.6082 25.6494C16.6208 29.4698 16.5482 30.1269 18.2481 35.4409C19.9481 40.7549 27.4462 38.3708 29.2734 37.2126C30.2646 36.5843 32.2994 36.1671 33.8233 36.1887C32.6576 37.7432 30.4919 39.6151 29.2766 40.5615C31.13 40.0477 35.0007 38.6795 35.6559 37.3168C36.0306 36.5374 35.1087 36.2069 33.8233 36.1887C34.2241 35.6543 34.5067 35.1574 34.5918 34.7485C35.0079 32.7505 31.4401 31.741 28.9124 29.6587C26.3847 27.5764 25.3984 23.2105 26.9815 21.5115C28.5646 19.8124 30.2069 15.6415 31.0948 13.6687Z" fill="white"/>
<path d="M42.6582 31.2663C42.1932 31.3385 41.0734 31.7022 40.3131 32.5788C39.3628 33.6747 37.7776 35.7557 36.2077 35.1623C36.6676 33.3669 39.4417 23.7369 39.6566 21.6969C39.991 18.5241 41.6201 4.69423 37.0211 3.22929C32.422 1.76435 31.9827 11.696 31.0948 13.6687C30.2069 15.6415 28.5646 19.8124 26.9815 21.5115C25.3984 23.2105 26.3847 27.5764 28.9124 29.6587C31.4401 31.741 35.0079 32.7505 34.5918 34.7485C34.259 36.3468 30.9097 39.2898 29.2766 40.5615C31.13 40.0477 35.0007 38.6795 35.6559 37.3168C36.4748 35.6134 31.1006 36.0544 29.2734 37.2126C27.4462 38.3708 19.9481 40.7549 18.2481 35.4409C16.5482 30.1269 16.6208 29.4698 19.6082 25.6494C22.2916 22.2177 21.4217 22.5448 21.0019 21.7018C20.5429 20.7799 20.4447 20.8894 21.7925 17.1213C23.1403 13.3532 23.2083 9.35293 22.9916 7.95819C22.7935 6.68339 22.7143 4.32022 25.5285 4.8663C26.1149 4.9801 26.6522 5.27721 27.0579 5.71565C30.1435 9.05002 34.3135 19.2828 34.1631 23.3509C34.2264 27.9587 34.9106 30.1428 34.4781 31.0843" stroke="#FFCC00" stroke-width="1.07024" stroke-linecap="round"/>
</g>
</svg>
