<svg width="24" height="24" viewBox="0 0 24 24" fill="none" xmlns="http://www.w3.org/2000/svg">
<g clip-path="url(#clip0_98_740)">
<path d="M12.088 4.81978C13.562 4.09516 15.1917 3.74474 16.8333 3.79951C18.4748 3.85427 20.0776 4.31253 21.5 5.13378C21.6347 5.21154 21.7494 5.31964 21.8349 5.44949C21.9205 5.57934 21.9746 5.72735 21.993 5.88178L22 5.99978V18.9998C22 19.1753 21.9538 19.3478 21.866 19.4998C21.7782 19.6518 21.652 19.778 21.5 19.8658C21.348 19.9536 21.1755 19.9998 21 19.9998C20.8245 19.9998 20.652 19.9535 20.5 19.8658C19.2838 19.1636 17.9043 18.794 16.5 18.794C15.0957 18.794 13.7162 19.1636 12.5 19.8658C12.348 19.9536 12.1755 19.9998 12 19.9998C11.8245 19.9998 11.652 19.9536 11.5 19.8658C10.3287 19.1894 9.00494 18.821 7.65257 18.7952C6.30021 18.7693 4.96337 19.0867 3.767 19.7178L3.44 19.8978L3.337 19.9418L3.288 19.9578L3.178 19.9838L3.117 19.9938L3 19.9998H2.958L2.848 19.9878L2.771 19.9738L2.663 19.9418L2.537 19.8858L2.442 19.8298L2.353 19.7628L2.293 19.7068L2.22 19.6248L2.156 19.5358L2.134 19.4998L2.102 19.4398L2.058 19.3368L2.042 19.2878L2.016 19.1778L2.006 19.1168L2.002 19.0678L2 18.9998V5.99978C2 5.82425 2.04621 5.65181 2.13398 5.4998C2.22175 5.34778 2.34798 5.22155 2.5 5.13378C3.9224 4.31253 5.52518 3.85427 7.16672 3.79951C8.80827 3.74474 10.438 4.09516 11.912 4.81978L12 4.86378L12.088 4.81978Z" fill="#007AFF"/>
</g>
<defs>
<clipPath id="clip0_98_740">
<rect width="24" height="24" fill="white"/>
</clipPath>
</defs>
</svg>
