<svg width="25" height="24" viewBox="0 0 25 24" fill="none" xmlns="http://www.w3.org/2000/svg">
<g clip-path="url(#clip0_98_1889)">
<path d="M13.307 2.29279L22.307 11.2928C22.937 11.9228 22.491 12.9998 21.6 12.9998H20.6V18.9998C20.6 19.7954 20.2839 20.5585 19.7213 21.1211C19.1587 21.6837 18.3957 21.9998 17.6 21.9998H16.6V14.9998C16.6001 14.2346 16.3077 13.4983 15.7827 12.9415C15.2578 12.3848 14.5399 12.0497 13.776 12.0048L13.6 11.9998H11.6C10.8044 11.9998 10.0413 12.3159 9.47869 12.8785C8.91608 13.4411 8.60001 14.2041 8.60001 14.9998V21.9998H7.60001C6.80437 21.9998 6.0413 21.6837 5.47869 21.1211C4.91609 20.5585 4.60001 19.7954 4.60001 18.9998V12.9998H3.60001C2.71001 12.9998 2.26301 11.9228 2.89301 11.2928L11.893 2.29279C12.0805 2.10532 12.3349 2 12.6 2C12.8652 2 13.1195 2.10532 13.307 2.29279ZM13.6 13.9998C13.8652 13.9998 14.1196 14.1051 14.3071 14.2927C14.4947 14.4802 14.6 14.7346 14.6 14.9998V21.9998H10.6V14.9998C10.6 14.7549 10.69 14.5184 10.8527 14.3354C11.0155 14.1524 11.2398 14.0354 11.483 14.0068L11.6 13.9998H13.6Z" fill="#007AFF"/>
</g>
<defs>
<clipPath id="clip0_98_1889">
<rect width="24" height="24" fill="white" transform="translate(0.600006)"/>
</clipPath>
</defs>
</svg>
