<svg width="25" height="24" viewBox="0 0 25 24" fill="none" xmlns="http://www.w3.org/2000/svg">
<g clip-path="url(#clip0_98_753)">
<path d="M8.39996 7C8.39996 8.06087 8.82139 9.07828 9.57154 9.82843C10.3217 10.5786 11.3391 11 12.4 11C13.4608 11 14.4782 10.5786 15.2284 9.82843C15.9785 9.07828 16.4 8.06087 16.4 7C16.4 5.93913 15.9785 4.92172 15.2284 4.17157C14.4782 3.42143 13.4608 3 12.4 3C11.3391 3 10.3217 3.42143 9.57154 4.17157C8.82139 4.92172 8.39996 5.93913 8.39996 7Z" stroke="#999999" stroke-width="2" stroke-linecap="round" stroke-linejoin="round"/>
<path d="M6.39996 21V19C6.39996 17.9391 6.82139 16.9217 7.57154 16.1716C8.32168 15.4214 9.3391 15 10.4 15H14.4C15.4608 15 16.4782 15.4214 17.2284 16.1716C17.9785 16.9217 18.4 17.9391 18.4 19V21" stroke="#999999" stroke-width="2" stroke-linecap="round" stroke-linejoin="round"/>
</g>
<defs>
<clipPath id="clip0_98_753">
<rect width="24" height="24" fill="white" transform="translate(0.399963)"/>
</clipPath>
</defs>
</svg>
