<svg width="25" height="24" viewBox="0 0 25 24" fill="none" xmlns="http://www.w3.org/2000/svg">
<g clip-path="url(#clip0_98_1094)">
<path d="M12.4 2C13.3889 2 14.3556 2.29324 15.1779 2.84265C16.0001 3.39206 16.641 4.17295 17.0194 5.08658C17.3979 6.00021 17.4969 7.00555 17.304 7.97545C17.111 8.94536 16.6348 9.83627 15.9356 10.5355C15.2363 11.2348 14.3454 11.711 13.3755 11.9039C12.4056 12.0969 11.4002 11.9978 10.4866 11.6194C9.57298 11.241 8.79208 10.6001 8.24268 9.77785C7.69327 8.95561 7.40002 7.98891 7.40002 7L7.40502 6.783C7.46094 5.49575 8.01163 4.27978 8.94225 3.38866C9.87286 2.49754 11.1116 2.00007 12.4 2Z" fill="#007AFF"/>
<path d="M14.4 14C15.7261 14 16.9979 14.5268 17.9356 15.4645C18.8732 16.4021 19.4 17.6739 19.4 19V20C19.4 20.5304 19.1893 21.0391 18.8142 21.4142C18.4392 21.7893 17.9305 22 17.4 22H7.40002C6.86959 22 6.36088 21.7893 5.98581 21.4142C5.61074 21.0391 5.40002 20.5304 5.40002 20V19C5.40002 17.6739 5.92681 16.4021 6.86449 15.4645C7.80217 14.5268 9.07394 14 10.4 14H14.4Z" fill="#007AFF"/>
</g>
<defs>
<clipPath id="clip0_98_1094">
<rect width="24" height="24" fill="white" transform="translate(0.400024)"/>
</clipPath>
</defs>
</svg>
