<svg width="25" height="24" viewBox="0 0 25 24" fill="none" xmlns="http://www.w3.org/2000/svg">
<g clip-path="url(#clip0_98_862)">
<path d="M3.19995 13C3.19995 12.7348 3.27019 12.4804 3.39521 12.2929C3.52024 12.1054 3.68981 12 3.86662 12H6.53328C6.7101 12 6.87966 12.1054 7.00469 12.2929C7.12971 12.4804 7.19995 12.7348 7.19995 13V19C7.19995 19.2652 7.12971 19.5196 7.00469 19.7071C6.87966 19.8946 6.7101 20 6.53328 20H3.86662C3.68981 20 3.52024 19.8946 3.39521 19.7071C3.27019 19.5196 3.19995 19.2652 3.19995 19V13Z" fill="#007AFF" stroke="#007AFF" stroke-width="2" stroke-linecap="round" stroke-linejoin="round"/>
<path d="M17.2 9C17.2 8.73478 17.2702 8.48043 17.3952 8.29289C17.5202 8.10536 17.6898 8 17.8666 8H20.5333C20.7101 8 20.8797 8.10536 21.0047 8.29289C21.1297 8.48043 21.2 8.73478 21.2 9V19C21.2 19.2652 21.1297 19.5196 21.0047 19.7071C20.8797 19.8946 20.7101 20 20.5333 20H17.8666C17.6898 20 17.5202 19.8946 17.3952 19.7071C17.2702 19.5196 17.2 19.2652 17.2 19V9Z" fill="#007AFF" stroke="#007AFF" stroke-width="2" stroke-linecap="round" stroke-linejoin="round"/>
<path d="M10.2 5C10.2 4.73478 10.2702 4.48043 10.3952 4.29289C10.5202 4.10536 10.6898 4 10.8666 4H13.5333C13.7101 4 13.8797 4.10536 14.0047 4.29289C14.1297 4.48043 14.2 4.73478 14.2 5V19C14.2 19.2652 14.1297 19.5196 14.0047 19.7071C13.8797 19.8946 13.7101 20 13.5333 20H10.8666C10.6898 20 10.5202 19.8946 10.3952 19.7071C10.2702 19.5196 10.2 19.2652 10.2 19V5Z" fill="#007AFF" stroke="#007AFF" stroke-width="2" stroke-linecap="round" stroke-linejoin="round"/>
<path d="M4.19995 20H18.2" stroke="#007AFF" stroke-width="2" stroke-linecap="round" stroke-linejoin="round"/>
</g>
<defs>
<clipPath id="clip0_98_862">
<rect width="24" height="24" fill="white" transform="translate(0.199951)"/>
</clipPath>
</defs>
</svg>
