<svg width="25" height="24" viewBox="0 0 25 24" fill="none" xmlns="http://www.w3.org/2000/svg">
<path d="M23.001 12.2336C23.001 11.3702 22.9296 10.7402 22.7748 10.0869H12.7153V13.9835H18.62C18.501 14.9519 17.8582 16.4102 16.4296 17.3902L16.4096 17.5206L19.5902 19.9354L19.8106 19.9569C21.8343 18.1252 23.001 15.4302 23.001 12.2336Z" fill="#4285F4"/>
<path d="M12.7147 22.4996C15.6075 22.4996 18.036 21.5662 19.8099 19.9562L16.4289 17.3895C15.5242 18.0078 14.3099 18.4395 12.7147 18.4395C9.88136 18.4395 7.47663 16.6079 6.61941 14.0762L6.49376 14.0866L3.1865 16.595L3.14325 16.7128C4.90513 20.1428 8.52417 22.4996 12.7147 22.4996Z" fill="#34A853"/>
<path d="M6.62003 14.0765C6.39385 13.4232 6.26295 12.7231 6.26295 11.9998C6.26295 11.2764 6.39385 10.5764 6.60813 9.92313L6.60214 9.78398L3.25343 7.23535L3.14387 7.28642C2.41771 8.70977 2.00104 10.3081 2.00104 11.9998C2.00104 13.6915 2.41771 15.2897 3.14387 16.7131L6.62003 14.0765Z" fill="#FBBC05"/>
<path d="M12.7147 5.55997C14.7266 5.55997 16.0837 6.41163 16.8576 7.12335L19.8814 4.23C18.0243 2.53834 15.6075 1.5 12.7147 1.5C8.5242 1.5 4.90514 3.85665 3.14325 7.28662L6.60753 9.92332C7.47665 7.39166 9.8814 5.55997 12.7147 5.55997Z" fill="#EB4335"/>
</svg>
