<svg width="262" height="129" viewBox="0 0 262 129" fill="none" xmlns="http://www.w3.org/2000/svg">
<path d="M9.16999 81.025C8.90799 66.2743 8.85559 51.8872 8.75079 37.5C8.75079 35.9938 9.27479 35.1108 10.5324 34.4356C18.34 29.9688 26.1476 25.5021 33.9028 20.9834C39.9812 17.4515 45.9548 13.7638 52.0332 10.3358C54.1292 9.14125 56.1204 7.7389 58.2164 6.5443C59.3168 5.92103 60.4696 6.12878 61.308 6.75205C64.1376 8.98543 67.3864 10.4397 70.478 12.1537C80.9056 18.0748 91.438 23.9439 101.866 29.813C104.486 31.2673 107.158 32.6177 109.673 34.2278C110.669 34.8511 110.459 35.1628 109.568 35.5783C109.411 35.6302 109.306 35.6821 109.149 35.786C107.63 37.1364 106.32 37.0845 104.433 35.9418C98.512 32.3061 92.3288 29.0339 86.2504 25.606C77.8664 20.8795 69.4824 16.153 61.0984 11.4266C59.9456 10.7514 58.8976 10.4917 57.64 11.3227C53.3956 14.1793 48.8892 16.5685 44.4876 19.1655C34.2172 25.1385 23.9992 31.1115 13.6764 37.0326C12.576 37.6558 12.4188 38.383 12.4712 39.5776C12.576 49.7576 12.6284 59.9897 12.6808 70.1697C12.7332 76.9218 12.838 83.7259 12.8904 90.4779C12.8904 91.4648 13.2048 91.9842 14.0432 92.4516C17.5016 94.3214 20.8028 96.5029 24.2612 98.3727C35.9988 104.501 47.3696 111.202 58.95 117.642C59.998 118.213 60.784 118.006 61.7272 117.434C71.002 112.033 80.2244 106.631 89.4992 101.229C95.0536 98.0091 100.608 94.8408 106.11 91.5167C107.63 90.5818 108.52 91.8284 109.673 92.2439C110.145 92.3997 110.878 92.5555 110.878 93.2307C110.878 93.7501 110.145 93.854 109.778 94.1137C102.075 98.5804 94.32 103.047 86.6172 107.514C79.0192 111.929 71.4212 116.396 63.8756 120.862C60.3648 122.94 60.3648 122.94 56.9588 121.018C41.396 112.24 25.8856 103.515 10.3228 94.7889C9.37959 94.2695 9.06519 93.6982 9.11759 92.6594C9.16999 88.6601 9.16999 84.6608 9.16999 81.025Z" fill="#298FFE"/>
<path d="M36.5752 70.9487C36.5752 66.43 36.5752 61.9112 36.5752 57.3406C36.5752 56.2499 36.8372 55.7305 37.99 55.1072C39.1428 54.484 40.1908 53.6529 41.5008 53.1855C42.1296 52.9258 41.8152 51.9909 41.8152 51.3676C41.8676 48.7187 41.8676 48.6148 44.54 48.9265C46.2168 49.1342 47.8936 49.4459 49.518 49.9133C50.566 50.2249 50.7756 49.9133 50.9852 48.9784C51.352 47.3683 52.2952 46.1737 54.0244 45.8621C54.5484 45.7582 54.8628 45.4465 55.1248 44.9791C55.5964 44.1481 56.4872 43.5248 57.3256 43.7326C58.426 43.9922 59.6836 44.3039 60.0504 45.7062C60.1552 46.0698 60.0504 46.745 60.7316 46.6931C61.2032 46.6411 61.1508 46.0698 61.2556 45.7062C61.6224 44.5116 62.4084 43.8364 63.6136 43.6806C64.7664 43.5248 65.6572 44.0442 66.2336 45.031C66.4956 45.4465 66.7576 45.7582 67.2292 45.8101C69.168 46.1218 69.954 47.5241 70.3208 49.2381C70.6876 50.7443 72.4692 52.4583 73.9888 52.5622C76.504 52.718 78.9144 53.1855 81.3772 53.8607C83.6828 54.484 84.7832 55.7305 84.7832 58.0678C84.7832 66.7935 84.7832 75.4674 84.7832 84.1931C84.7832 86.6343 84.7308 86.6862 82.2156 86.6862C73.622 86.6862 65.0284 86.6862 56.4348 86.6862C50.4612 86.6862 44.4352 86.6343 38.4616 86.6862C36.9944 86.6862 36.5228 86.2188 36.5228 84.7645C36.6276 80.2458 36.5752 75.6232 36.5752 70.9487ZM81.482 68.4556C81.482 64.4043 81.4296 60.405 81.5344 56.3538C81.5344 55.2111 81.1676 54.7436 80.0672 54.6398C78.1808 54.432 76.2944 54.0684 74.408 53.7568C73.6744 53.6529 73.2552 53.7049 73.4124 54.6398C73.5696 55.6266 73.4648 56.7173 72.7836 57.4964C71.4736 59.0546 70.1636 60.6128 69.692 62.6903C69.5872 63.0539 69.168 63.5214 68.8012 63.6252C67.334 64.1446 66.3908 65.1834 65.3952 66.3261C64.7664 67.0532 64.5044 67.8842 64.8712 68.4556C65.5524 69.5463 65.5524 70.5851 65.5524 71.7797C65.5524 72.8185 65.8668 73.8053 64.714 74.3247C63.666 74.7922 63.7708 76.3503 62.5132 76.4023C60.9936 76.5061 60.8888 77.3372 60.9936 78.4798C61.046 79.1031 61.046 79.7783 60.9936 80.4016C60.8364 81.6481 61.308 81.9597 62.5132 81.7001C68.382 80.2977 74.2508 80.2977 80.1196 81.7001C81.2724 81.9597 81.5868 81.5962 81.5344 80.4535C81.482 76.5061 81.482 72.4549 81.482 68.4556ZM59.8408 81.8559C59.8408 80.1938 59.8408 78.8434 59.8408 77.493C59.8408 77.2333 59.736 76.8178 59.6836 76.8178C58.2164 76.7139 57.7972 75.3635 56.9064 74.5844C55.806 73.6495 55.1248 70.7409 55.8584 69.4424C56.8016 67.8323 55.8584 65.0276 54.0768 64.4563C52.0856 63.833 51.1424 62.5345 50.828 60.6128C50.7756 60.1973 50.7756 59.8337 50.304 59.4701C47.4744 57.1328 47.0552 54.8995 48.9416 51.7831C49.3608 51.1079 49.1512 50.9521 48.5224 50.7963C47.0028 50.3808 45.5356 50.0691 43.9636 50.0172C43.0728 49.9653 42.8108 50.3288 42.8108 51.1079C42.7584 59.4701 42.7584 67.8323 42.6536 76.1945C42.6536 77.0255 42.968 77.3372 43.8064 77.3372C45.6404 77.3372 47.422 77.493 49.2036 77.8566C52.924 78.6356 56.3824 79.8822 59.8408 81.8559ZM56.3824 62.1709C56.4348 62.6384 56.1204 62.8462 55.9108 63.1059C55.1248 64.0927 55.5964 64.9757 56.3824 65.4951C57.2732 66.0664 58.2164 65.8586 58.8452 64.8718C59.1596 64.4043 59.1596 63.833 59.1596 63.3136C59.1596 58.0158 59.1596 52.77 59.1596 47.4722C59.1596 47.0047 59.1072 46.4853 58.95 46.0179C58.5832 44.9791 57.7448 44.5636 56.6968 44.8233C55.7536 45.031 55.3344 46.3295 55.7012 47.3164C55.806 47.5761 56.0156 47.8357 56.1728 48.0954C56.33 48.3551 56.6444 48.6148 56.33 48.8745C56.0156 49.1342 55.6488 48.9265 55.4392 48.6668C55.2296 48.459 55.0724 48.1993 54.9676 47.9396C54.6008 46.745 53.9196 46.9528 53.186 47.5761C51.876 48.6668 51.614 50.2249 52.5572 51.7312C52.8192 52.1467 53.5528 52.6141 52.8716 53.0816C52.3476 53.4452 51.9284 52.8219 51.6664 52.4583C51.1424 51.6792 50.6708 51.8351 50.0944 52.4064C48.5224 53.9126 48.6272 56.6135 50.304 58.1197C50.828 58.5871 51.1424 58.6391 51.5616 58.0158C52.1904 57.1328 53.0288 56.5096 54.234 56.6654C54.6008 56.7173 54.9676 56.8732 54.9152 57.2887C54.9152 57.7042 54.496 57.6522 54.234 57.6522C52.9764 57.7561 52.2428 58.5352 51.9808 59.7298C51.7188 60.9244 52.0332 62.0151 52.9764 62.8462C53.6576 63.4175 54.3912 63.9369 55.02 62.6903C55.282 62.2748 55.7012 61.9112 56.3824 62.1709ZM62.1464 55.263C62.1988 55.263 62.1988 55.263 62.1464 55.263C62.1464 58.1197 62.1464 60.9244 62.1464 63.7811C62.1464 64.716 62.5132 65.4431 63.4564 65.7547C64.1376 65.9625 64.7664 65.7547 65.1856 65.1315C65.7096 64.3524 65.5524 63.6252 65.0284 62.95C64.9236 62.8462 64.8188 62.7423 64.714 62.5865C64.5044 62.3268 64.3996 62.0671 64.6092 61.7554C64.9236 61.3919 65.2904 61.6516 65.5524 61.8593C65.8668 62.119 66.2336 62.4306 66.286 62.7423C66.4956 63.7291 67.072 63.4694 67.596 63.2097C68.906 62.5345 69.43 61.3399 69.2728 59.9895C69.168 58.743 68.4868 57.86 67.1244 57.6522C66.81 57.6003 66.286 57.7561 66.3384 57.2367C66.3384 56.7173 66.81 56.6654 67.2292 56.6654C68.1724 56.7173 69.0108 57.029 69.5348 57.86C70.1112 58.743 70.5828 58.5871 71.1592 57.9119C72.2596 56.6654 72.5216 54.7956 71.788 53.3413C71.002 51.7831 70.5828 51.7312 69.3252 52.8219C69.0108 53.0816 68.6964 53.2894 68.382 53.0816C68.0152 52.8219 68.2248 52.4583 68.382 52.1467C68.5916 51.7831 68.8536 51.3676 69.0632 51.004C69.6396 49.7056 69.0632 48.1474 67.858 47.3683C66.3908 46.4334 66.4432 47.9396 65.8668 48.511C65.5524 48.8226 65.1856 49.29 64.714 48.8745C64.2424 48.511 64.7664 48.1474 64.976 47.8877C65.5 47.1605 65.6572 46.4334 65.1332 45.6543C64.7664 45.083 64.19 44.7194 63.4564 44.9272C62.4608 45.1868 62.0416 45.914 62.0416 46.9528C62.1464 49.7056 62.1464 52.4583 62.1464 55.263ZM60.4696 85.6994C60.4696 85.6474 60.4696 85.6474 60.4696 85.6994C67.6484 85.6474 74.8272 85.6474 82.006 85.6474C82.8444 85.6474 83.578 85.7513 83.578 84.5048C83.578 75.4674 83.578 66.4819 83.578 57.4445C83.578 57.0809 83.6828 56.5096 83.1588 56.5096C82.53 56.4576 82.7396 57.029 82.6872 57.3925C82.6348 57.7561 82.6872 58.0678 82.6872 58.4313C82.6872 66.2741 82.6872 74.065 82.6872 81.9078C82.6872 84.0893 82.268 84.5048 80.0672 84.5048C67.2292 84.5048 54.3388 84.5048 41.5008 84.5048C39.038 84.5048 38.7236 84.1931 38.7236 81.8039C38.7236 73.8053 38.7236 65.7547 38.7236 57.7561C38.7236 57.2887 38.9856 56.5615 38.252 56.5615C37.5184 56.5096 37.728 57.2887 37.728 57.7561C37.6756 66.5858 37.6232 75.3635 37.5184 84.1931C37.5184 85.5955 38.0424 85.8033 39.2476 85.8033C46.2692 85.6474 53.3956 85.6994 60.4696 85.6994ZM55.1772 81.0768C55.1248 80.5055 54.6532 80.5055 54.3912 80.4016C51.0376 79.1031 47.5792 78.4279 43.9636 78.4279C41.658 78.4279 41.658 78.376 41.7104 76.1426C41.7628 69.3905 41.7628 62.6384 41.8152 55.8344C41.8152 55.3669 42.1296 54.5878 41.1864 54.5878C40.4004 54.5878 39.7716 54.8475 39.824 55.8344C39.824 56.0941 39.824 56.3538 39.824 56.5615C39.824 64.4563 39.824 72.351 39.7716 80.2977C39.7716 81.7001 40.1908 81.9597 41.5008 81.7001C45.0116 80.9729 48.5748 80.4016 52.2428 80.8171C53.186 81.0249 54.1816 81.0249 55.1772 81.0768ZM61.046 56.3018C61.0984 53.8087 61.0984 51.3157 61.046 48.8226C61.046 48.459 61.2032 47.8877 60.6268 47.8877C60.1028 47.8877 60.26 48.459 60.26 48.8226C60.26 49.0303 60.26 49.2381 60.26 49.3939C60.26 53.8087 60.3124 58.2236 60.26 62.6384C60.26 64.3005 60.1028 65.9625 58.2164 66.7416C57.64 67.0013 57.64 67.4687 57.6924 67.9881C57.7972 68.6633 58.3212 68.5075 58.7404 68.5075C60.0504 68.5075 61.3604 68.5075 62.6704 68.5075C63.0896 68.5075 63.6136 68.6633 63.666 67.9362C63.7184 67.4168 63.666 67.0013 63.0896 66.7416C61.5176 66.0144 61.0984 64.664 61.0984 63.0539C61.046 60.8725 61.046 58.5871 61.046 56.3018ZM60.522 73.4937C61.5176 73.4937 62.5132 73.4937 63.5088 73.4937C63.9804 73.4937 64.452 73.3898 64.452 72.8185C64.452 72.351 64.0852 72.1952 63.666 72.0913C63.2992 72.0394 62.7228 72.1952 62.7752 71.6239C62.7752 71.1564 63.2992 71.1045 63.7184 71.1045C64.1376 71.0525 64.5568 70.8967 64.5044 70.3773C64.5044 69.8579 64.0328 69.7541 63.666 69.7021C61.6748 69.7021 59.6836 69.7021 57.64 69.7021C57.2208 69.7021 56.8016 69.806 56.7492 70.3254C56.7492 70.8967 57.1684 71.0525 57.6924 71.0525C58.2688 71.1045 58.8976 71.0525 59.474 71.1045C59.7884 71.1564 60.0504 71.3122 59.998 71.6758C59.9456 71.9874 59.6312 71.9874 59.4216 72.0394C58.8452 72.0913 58.2164 72.0394 57.64 72.0913C57.1684 72.1433 56.7492 72.2991 56.7492 72.9223C56.8016 73.4417 57.2208 73.4937 57.64 73.4937C58.6356 73.4937 59.5788 73.4937 60.522 73.4937ZM80.3816 83.3621C74.0936 81.2845 67.858 81.5962 61.6224 83.3621C67.858 83.3621 74.0936 83.3621 80.3816 83.3621ZM40.6624 83.3621C46.8456 83.3621 53.0288 83.3621 59.212 83.3621C53.0288 81.3884 46.8456 81.4404 40.6624 83.3621ZM60.6792 75.6232C61.2032 75.3116 62.4084 76.0387 62.4084 74.9999C62.4084 74.2728 61.2032 74.7922 60.6268 74.6363C60.5744 74.6363 60.522 74.6363 60.4696 74.6363C59.8932 74.7922 58.7404 74.2208 58.7404 75.0519C58.7928 75.8309 59.9456 75.4674 60.6792 75.6232Z" fill="#298FFE"/>
<path d="M192.465 77.2334C189.845 77.2334 187.225 77.2334 184.605 77.2334C182.509 77.2334 180.57 75.4155 180.57 73.3379C180.57 67.2091 180.57 61.0803 180.57 54.9515C180.57 52.9778 182.562 50.9521 184.553 50.9521C189.845 50.9521 195.085 50.9521 200.378 50.9521C202.264 50.9521 204.308 52.9258 204.308 54.8476C204.308 54.9515 204.308 55.0553 204.308 55.1592C204.308 59.3143 204.308 59.2624 200.116 59.1066C199.225 59.0547 198.806 58.795 198.91 57.86C199.068 56.7693 198.596 56.3538 197.496 56.4058C194.142 56.4577 190.788 56.4577 187.382 56.4058C186.439 56.4058 186.072 56.6654 186.072 57.6523C186.125 61.9632 186.125 66.3261 186.072 70.6371C186.072 71.52 186.387 71.8836 187.278 71.8836C190.736 71.8317 194.194 71.8317 197.653 71.8836C198.491 71.8836 198.753 71.572 198.806 70.741C198.963 67.4169 198.963 67.4168 195.662 67.4168C192.256 67.4168 192.256 67.4169 192.256 64.0408C192.256 62.0152 192.256 62.0152 194.299 62.0152C197.129 62.0152 199.906 62.0671 202.736 62.0152C203.836 62.0152 204.36 62.2749 204.36 63.5214C204.308 66.8455 204.36 70.1696 204.308 73.5457C204.308 75.2597 202.264 77.2334 200.482 77.2334C197.862 77.2334 195.19 77.2334 192.465 77.2334Z" fill="#298FFE"/>
<path d="M149.654 64.1972C149.654 68.0407 149.602 71.8842 149.654 75.6758C149.654 76.8185 149.34 77.234 148.135 77.2859C144.1 77.2859 144.1 77.3378 144.1 73.2866C144.1 69.2873 144.1 69.2873 140.118 69.2873C137.707 69.2873 135.297 69.3392 132.886 69.2873C131.786 69.2353 131.367 69.547 131.419 70.6896C131.524 72.3517 131.419 74.0657 131.472 75.7797C131.524 76.8184 131.157 77.3378 130.004 77.2859C128.956 77.234 127.908 77.2859 126.86 77.2859C126.074 77.2859 125.76 76.9743 125.76 76.1952C125.76 70.6896 125.76 65.1321 125.76 59.6266C125.76 58.9514 126.127 58.5359 126.546 58.0684C128.642 55.9909 130.738 53.9133 132.834 51.8357C133.41 51.2644 134.039 51.0566 134.825 51.0566C139.227 51.0566 143.681 51.1086 148.082 51.0566C149.392 51.0566 149.707 51.5241 149.654 52.7187C149.654 56.5102 149.654 60.3537 149.654 64.1972ZM137.707 63.8856C139.436 63.8856 141.113 63.8337 142.842 63.8856C143.943 63.9375 144.257 63.522 144.205 62.4833C144.152 60.8731 144.152 59.315 144.205 57.7049C144.257 56.7699 143.943 56.3544 142.947 56.4064C141.166 56.4583 139.332 56.4064 137.55 56.4064C137.131 56.4064 136.712 56.4064 136.397 56.718C134.878 58.2242 133.306 59.7305 131.838 61.2367C131.262 61.808 131.367 62.6391 131.576 63.3662C131.786 64.1453 132.572 63.8337 133.148 63.8337C134.563 63.9375 136.135 63.8856 137.707 63.8856Z" fill="#298FFE"/>
<path d="M158.929 61.0287C158.51 61.4962 158.72 62.0675 158.72 62.5869C158.72 66.9498 158.667 71.3646 158.72 75.7275C158.72 76.8701 158.353 77.2857 157.148 77.2857C153.113 77.2857 153.113 77.3376 153.113 73.4422C153.113 66.5343 153.165 59.5744 153.113 52.6665C153.113 51.42 153.532 51.0045 154.737 51.0564C159.61 51.2122 158.143 50.2773 161.182 54.3286C164.222 58.3798 167.261 62.3791 170.3 66.3784C170.51 66.6901 170.719 67.2614 171.138 67.1056C171.715 66.9498 171.453 66.3265 171.453 65.911C171.453 61.4442 171.453 56.9255 171.453 52.4588C171.453 51.4719 171.767 51.0564 172.815 51.0045C176.955 50.8486 176.955 50.8486 176.955 55.0038C176.955 61.7559 176.902 68.5599 177.007 75.312C177.007 76.7143 176.64 77.1299 175.173 77.2337C172.448 77.4934 170.772 76.5585 169.2 74.3251C166.318 70.0661 163.069 66.0668 159.977 61.9636C159.715 61.652 159.506 61.1326 158.929 61.0287Z" fill="#298FFE"/>
<path d="M104.905 37.9676C104.276 38.9544 103.595 39.0064 102.652 38.487C98.6692 36.2017 94.582 34.176 90.7044 31.7349C85.7788 28.6705 80.5912 26.1255 75.5608 23.2169C72.2072 21.2432 68.8536 19.3214 65.4476 17.3997C63.7184 16.4128 61.9368 15.5818 60.2076 14.543C59.474 14.1275 58.95 14.2833 58.2688 14.6469C48.3128 20.4641 38.3568 26.2813 28.4008 32.0985C24.5756 34.3318 20.7504 36.6172 16.9252 38.7986C15.9296 39.3699 15.6152 40.0971 15.6152 41.1878C15.7724 56.9773 15.8772 72.7668 15.982 88.5563C15.982 89.5431 16.244 90.1664 17.1872 90.6858C23.7372 94.3215 30.3396 97.8534 36.7848 101.697C44.1208 106.06 51.8236 109.851 59.1596 114.162C60.0504 114.682 60.6268 114.578 61.4652 114.11C75.2464 106.06 89.08 98.0092 102.861 89.9587C103.071 89.8548 103.28 89.699 103.49 89.5431C104.066 89.1796 104.643 89.2315 104.905 89.8028C105.167 90.3742 104.486 90.53 104.171 90.7377C100.818 92.7114 97.4116 94.6851 94.058 96.6588C83.2636 102.943 72.4692 109.228 61.7272 115.513C60.6268 116.136 59.8408 116.188 58.688 115.513C46.6884 108.709 34.6888 102.009 22.6892 95.2564C20.436 93.958 18.1828 92.6595 15.8772 91.4649C14.8816 90.9455 14.5672 90.3222 14.5672 89.2315C14.5672 80.298 14.5148 71.4164 14.4624 62.4829C14.41 55.1075 14.3576 47.7321 14.2528 40.3568C14.2528 39.2141 14.5672 38.5909 15.5628 37.9676C29.7108 29.7612 43.8588 21.5029 57.9544 13.1926C58.8976 12.6213 59.5788 12.7771 60.4172 13.2446C65.7096 16.1531 71.1068 18.854 76.3468 21.9184C85.3596 27.2162 94.6868 31.8907 103.7 37.2404C104.171 37.5001 104.538 37.7079 104.905 37.9676Z" fill="#298FFE"/>
<path d="M207.818 63.9375C207.818 60.0941 207.871 56.2506 207.818 52.459C207.818 51.4202 208.133 51.0566 209.181 51.0566C215.783 51.1086 222.438 51.1086 229.04 51.1086C230.036 51.1086 230.455 51.4202 230.455 52.459C230.455 56.4064 230.508 56.4064 226.578 56.4064C222.648 56.4064 218.77 56.4583 214.84 56.4064C213.844 56.4064 213.373 56.6141 213.425 57.7568C213.582 62.5871 212.744 61.6522 217.303 61.7561C220.761 61.808 224.22 61.808 227.678 61.7561C228.621 61.7561 228.988 61.9639 229.04 63.0026C229.145 67.002 229.198 67.002 225.163 67.002C221.704 67.002 218.246 67.0539 214.788 67.002C213.687 67.002 213.268 67.3136 213.32 68.4562C213.373 70.9493 213.32 73.4424 213.373 75.9355C213.373 76.9223 213.058 77.2859 212.063 77.234C211.12 77.182 210.176 77.182 209.181 77.234C208.08 77.2859 207.818 76.8185 207.818 75.8316C207.871 71.8323 207.818 67.8849 207.818 63.9375Z" fill="#298FFE"/>
<path d="M255.764 55.9382C255.764 56.6654 255.712 57.1328 255.764 57.5483C256.446 60.9244 254.14 62.4825 251.782 63.9888C251.415 64.2485 251.101 64.6121 250.682 64.7679C246.856 66.1702 246.123 69.0269 246.699 72.6107C246.752 72.8704 246.699 73.1301 246.699 73.3378C246.699 77.441 246.228 77.8046 242.088 77.1813C241.197 77.0255 241.25 76.4542 241.25 75.8828C241.25 73.5975 241.197 71.3122 241.25 69.0269C241.302 67.8842 240.883 67.209 239.94 66.5857C237.634 65.0276 235.381 63.3655 233.023 61.7554C232.237 61.236 231.922 60.6127 231.922 59.6259C231.975 57.2367 231.975 54.8475 231.922 52.4583C231.922 51.5234 232.184 51.1598 233.18 51.1079C237.529 51.004 237.686 50.9521 237.477 55.263C237.32 57.7561 238.158 59.2104 240.306 60.5089C244.027 62.7422 243.87 62.7422 247.59 60.5608C249.791 59.2623 250.734 57.7561 250.367 55.3149C250.21 54.3281 250.367 53.3413 250.315 52.3544C250.262 51.5753 250.629 51.2637 251.363 51.3156C251.415 51.3156 251.468 51.3156 251.52 51.3156C252.83 51.4195 254.716 50.6924 255.398 51.6273C256.393 52.718 255.66 54.5878 255.764 55.9382Z" fill="#298FFE"/>
<path d="M101.289 64.0409C101.289 60.1974 101.342 56.3539 101.237 52.5623C101.237 51.3677 101.656 51.0561 102.809 51.0561C106.791 51.0042 106.791 51.0042 106.844 54.8996C106.844 60.0416 106.896 65.1316 106.791 70.2736C106.791 71.624 107.21 71.9356 108.52 71.9356C113.027 71.8837 117.533 71.9356 122.092 71.8837C123.507 71.8837 124.083 72.1953 124.031 73.7016C123.874 77.6489 124.712 77.2854 120.31 77.3373C114.756 77.3373 109.149 77.3373 103.595 77.3373C101.342 77.3373 101.342 77.3373 101.342 75.2078C101.289 71.4162 101.289 67.7286 101.289 64.0409Z" fill="#298FFE"/>
<path d="M50.6708 45.1871C50.5136 45.6545 50.2516 45.8104 49.9372 45.6545C49.256 45.1871 48.5224 44.7196 48.4176 43.8367C48.3652 43.525 48.732 43.2653 49.0464 43.4731C49.6752 43.9406 50.3564 44.4599 50.6708 45.1871Z" fill="#298FFE"/>
<path d="M71.3688 45.6546C70.9496 45.6027 70.5828 45.5507 70.74 45.1352C71.0544 44.3561 71.6832 43.7848 72.4168 43.3693C72.6788 43.2135 72.9932 43.5771 72.9408 43.8887C72.6788 44.7717 72.1548 45.3949 71.3688 45.6546Z" fill="#298FFE"/>
<path d="M60.1028 39.8892C60.2076 39.3698 59.9456 38.5388 60.7316 38.6427C61.3604 38.6946 61.2032 39.5256 61.2032 40.045C61.2032 40.5644 61.3604 41.3955 60.6268 41.3435C59.8408 41.2916 60.2076 40.3567 60.1028 39.8892Z" fill="#298FFE"/>
<path d="M81.482 68.4553C81.482 72.5066 81.4296 76.5059 81.482 80.5572C81.482 81.6998 81.22 82.0634 80.0672 81.8037C74.1984 80.4014 68.3296 80.4014 62.4608 81.8037C61.2556 82.0634 60.784 81.7518 60.9412 80.5052C60.9936 79.882 60.9936 79.2067 60.9412 78.5835C60.8364 77.4408 60.9412 76.5579 62.4608 76.5059C63.666 76.454 63.6136 74.8439 64.6616 74.4283C65.8144 73.909 65.5 72.9221 65.5 71.8833C65.5 70.6887 65.5 69.65 64.8188 68.5592C64.452 67.936 64.714 67.1569 65.3428 66.4297C66.3384 65.2871 67.2816 64.2483 68.7488 63.7289C69.1156 63.5731 69.5872 63.1576 69.6396 62.794C70.1112 60.7164 71.4212 59.1582 72.7312 57.6001C73.36 56.821 73.4648 55.7303 73.36 54.7434C73.2028 53.8085 73.622 53.7566 74.3556 53.8605C76.242 54.1721 78.1284 54.4837 80.0148 54.7434C81.1152 54.8992 81.5344 55.3148 81.482 56.4574C81.482 60.3528 81.482 64.4041 81.482 68.4553ZM76.4516 56.1977C76.8708 55.99 77.7616 56.4574 77.7616 55.5225C77.7616 54.7434 76.9756 54.9512 76.4516 54.9512C75.9276 54.9512 75.0368 54.6395 75.0368 55.5225C75.0368 56.4055 75.8752 56.0938 76.4516 56.1977ZM71.2116 65.5987C70.8972 65.7026 70.5828 65.8584 70.74 66.222C71.1068 66.8972 71.6308 67.5205 72.4168 67.7801C72.7312 67.884 73.0456 67.5724 72.9408 67.2608C72.574 66.4297 72.05 65.8584 71.2116 65.5987Z" fill="#EDF5FE"/>
<path d="M59.8408 81.8557C56.33 79.8821 52.8716 78.6355 49.256 77.9084C47.4744 77.5448 45.6928 77.337 43.8588 77.389C43.0204 77.389 42.706 77.1293 42.706 76.2463C42.7584 67.8841 42.8108 59.5219 42.8632 51.1597C42.8632 50.3287 43.1252 50.017 44.016 50.069C45.588 50.1729 47.1076 50.4326 48.5748 50.8481C49.2036 51.0039 49.3608 51.1597 48.994 51.8349C47.1076 54.9513 47.5268 57.1327 50.3564 59.5219C50.7756 59.8855 50.7756 60.2491 50.8804 60.6646C51.1424 62.5863 52.138 63.8848 54.1292 64.5081C55.9108 65.0275 56.854 67.8322 55.9108 69.4942C55.1772 70.7927 55.8584 73.7013 56.9588 74.6362C57.8496 75.4153 58.2688 76.7657 59.736 76.8696C59.7884 76.8696 59.8932 77.337 59.8932 77.5448C59.8932 78.8433 59.8408 80.1937 59.8408 81.8557ZM44.9068 56.1459C45.2736 55.9381 46.112 56.4056 46.1644 55.6265C46.2168 54.6916 45.326 55.0032 44.802 55.0032C44.3304 55.0032 43.5444 54.7435 43.5444 55.5745C43.5444 56.3536 44.3304 56.0939 44.9068 56.1459ZM50.6184 66.1182C50.6708 65.7546 50.4612 65.5468 50.1992 65.5988C49.256 65.7027 48.8368 66.4817 48.4176 67.157C48.2604 67.4686 48.5224 67.7802 48.8892 67.7283C49.7276 67.4686 50.1992 66.7934 50.6184 66.1182Z" fill="#EDF5FE"/>
<path d="M56.3824 62.1711C55.7012 61.9114 55.2296 62.2749 55.02 62.6905C54.3912 63.8851 53.6052 63.4176 52.9764 62.8463C52.0332 62.0153 51.7188 60.9245 51.9808 59.7299C52.2428 58.5353 52.9764 57.8082 54.234 57.6524C54.5484 57.6004 54.9152 57.6524 54.9152 57.2888C54.9152 56.8733 54.5484 56.7175 54.234 56.6655C53.0288 56.5097 52.1904 57.133 51.5616 58.0159C51.09 58.6392 50.828 58.6392 50.304 58.1198C48.6272 56.6136 48.5224 53.9127 50.0944 52.4065C50.6708 51.8352 51.1424 51.6794 51.6664 52.4585C51.9284 52.874 52.3476 53.4453 52.8716 53.0817C53.5528 52.5623 52.8192 52.1468 52.5572 51.7313C51.6664 50.2251 51.876 48.6669 53.186 47.5762C53.9196 46.9529 54.6008 46.7452 54.9676 47.9398C55.0724 48.1994 55.2296 48.4591 55.4392 48.6669C55.6488 48.9266 56.0156 49.1344 56.33 48.8747C56.6444 48.615 56.3824 48.3553 56.1728 48.0956C56.0156 47.8359 55.806 47.6281 55.7012 47.3165C55.282 46.3296 55.7536 45.0831 56.6968 44.8234C57.7448 44.5637 58.5832 44.9273 58.95 46.018C59.1072 46.4855 59.1596 47.0048 59.1596 47.4723C59.1596 52.7701 59.1596 58.0159 59.1596 63.3137C59.1596 63.8851 59.1596 64.4045 58.8452 64.8719C58.2164 65.8587 57.2732 66.0665 56.3824 65.4952C55.5964 64.9758 55.1248 64.0928 55.9108 63.106C56.1204 62.8463 56.4348 62.6385 56.3824 62.1711ZM57.64 58.3795C57.6924 58.3795 58.164 58.795 58.2688 58.1198C58.3736 57.5485 57.902 57.3927 57.4304 57.2369C56.1728 56.8733 55.02 57.9121 55.1772 59.2625C55.2296 59.5741 55.2296 59.8857 55.5964 59.9377C55.9632 59.9896 56.068 59.678 56.1204 59.3664C56.33 58.6912 56.4872 58.1198 57.64 58.3795ZM55.4392 50.3809C54.8628 50.3809 54.1816 50.5886 54.234 51.3158C54.2864 51.9391 54.9152 51.6274 55.3344 51.5755C55.8584 51.5236 56.1728 51.7313 56.3824 52.1988C56.5396 52.5623 56.3824 53.2895 57.116 52.9778C57.6924 52.7181 57.4828 52.0949 57.3256 51.6794C57.0112 50.9003 56.4348 50.3809 55.4392 50.3809Z" fill="#EDF5FE"/>
<path d="M62.1464 55.2633C62.1464 52.4586 62.1464 49.7058 62.1464 46.9011C62.1464 45.9143 62.5656 45.1352 63.5612 44.8755C64.2948 44.6677 64.8188 45.0313 65.238 45.6026C65.7096 46.3817 65.6048 47.1089 65.0808 47.836C64.8712 48.0957 64.3472 48.4593 64.8188 48.8228C65.2904 49.1864 65.6572 48.7709 65.9716 48.4593C66.548 47.8879 66.4956 46.3298 67.9628 47.3166C69.168 48.0957 69.7444 49.6539 69.168 50.9524C69.0108 51.3679 68.7488 51.7314 68.4868 52.095C68.3296 52.4066 68.0676 52.7702 68.4868 53.0299C68.8012 53.2377 69.1156 53.0299 69.43 52.7702C70.6876 51.6795 71.1068 51.7834 71.8928 53.2896C72.6264 54.7958 72.3644 56.6657 71.264 57.8603C70.6876 58.4835 70.216 58.6913 69.6396 57.8083C69.1156 57.0292 68.2772 56.6657 67.334 56.6137C66.9148 56.6137 66.4432 56.6657 66.4432 57.185C66.4432 57.7044 66.9148 57.5486 67.2292 57.6006C68.5916 57.8083 69.2728 58.7432 69.3776 59.9378C69.4824 61.2882 69.0108 62.4828 67.7008 63.158C67.1768 63.4177 66.6004 63.6774 66.3908 62.6906C66.3384 62.327 65.9716 62.0154 65.6572 61.8076C65.3952 61.5999 65.0284 61.3402 64.714 61.7038C64.5044 61.9634 64.6092 62.2751 64.8188 62.5348C64.9236 62.6387 65.0284 62.7425 65.1332 62.8984C65.6572 63.5736 65.8668 64.3526 65.2904 65.0798C64.8712 65.6511 64.2424 65.9108 63.5612 65.7031C62.618 65.3914 62.2512 64.6643 62.2512 63.7294C62.1988 60.9247 62.1988 58.1199 62.1464 55.2633C62.1988 55.2633 62.1988 55.2633 62.1464 55.2633ZM66.1288 59.0029C66.0764 58.3796 65.8144 57.7564 65.1856 57.3409C64.6092 56.9773 64.0328 57.1331 63.4564 57.3928C63.142 57.5486 62.8276 57.7564 63.0372 58.2238C63.1944 58.5874 63.5088 58.5874 63.8232 58.4316C64.714 58.0161 65.0284 58.4835 65.1856 59.2107C65.2904 59.5223 65.1856 59.9898 65.7096 59.9378C66.0764 59.8339 66.1288 59.4184 66.1288 59.0029ZM65.6572 50.381C64.6092 50.4849 64.0328 51.264 63.8232 52.3028C63.7708 52.6663 63.8756 53.0299 64.3472 53.0819C64.714 53.1338 64.8712 52.8741 64.9236 52.5105C65.0284 51.8873 65.3428 51.5237 66.024 51.5756C66.4432 51.5756 67.072 51.9392 67.1244 51.264C67.072 50.5368 66.3908 50.433 65.6572 50.381Z" fill="#EDF5FE"/>
<path d="M60.4696 85.6993C53.3956 85.6993 46.3216 85.6474 39.1952 85.6993C37.9376 85.6993 37.4136 85.4396 37.466 84.0892C37.5708 75.2596 37.6232 66.4818 37.6756 57.6522C37.6756 57.1847 37.466 56.4576 38.1996 56.4576C38.8808 56.4576 38.6712 57.2367 38.6712 57.6522C38.6712 65.6508 38.6712 73.7014 38.6712 81.7C38.6712 84.1411 38.9856 84.4008 41.4484 84.4008C54.2864 84.4008 67.1768 84.4008 80.0148 84.4008C82.2156 84.4008 82.6348 83.9853 82.6348 81.8039C82.6348 73.9611 82.6348 66.1702 82.6348 58.3274C82.6348 57.9638 82.6348 57.6522 82.6348 57.2886C82.6872 56.925 82.4776 56.3537 83.1064 56.4057C83.6304 56.4576 83.5256 56.977 83.5256 57.3406C83.5256 66.378 83.4732 75.3634 83.5256 84.4008C83.5256 85.6474 82.792 85.5435 81.9536 85.5435C74.8272 85.6474 67.6484 85.6474 60.4696 85.6993C60.4696 85.6474 60.4696 85.6474 60.4696 85.6993Z" fill="#EDF5FE"/>
<path d="M55.1772 81.0767C54.1816 81.0247 53.186 80.9728 52.2428 80.8689C48.6272 80.4534 45.064 80.9728 41.5008 81.7519C40.1908 82.0116 39.7716 81.7519 39.7716 80.3495C39.824 72.4548 39.824 64.56 39.824 56.6133C39.824 56.3536 39.824 56.0939 39.824 55.8862C39.7716 54.9513 40.4004 54.6916 41.1864 54.6396C42.1296 54.6396 41.8152 55.4187 41.8152 55.8862C41.8152 62.6383 41.7628 69.3904 41.7104 76.1944C41.7104 78.4278 41.7104 78.4797 43.9636 78.4797C47.5792 78.4797 51.0376 79.103 54.3912 80.4534C54.6532 80.5573 55.0724 80.5053 55.1772 81.0767Z" fill="#EDF5FE"/>
<path d="M61.046 56.3024C61.046 58.5878 61.046 60.8731 61.046 63.1584C61.046 64.7685 61.4652 66.119 63.0372 66.8461C63.6136 67.1058 63.666 67.5213 63.6136 68.0407C63.5612 68.7159 63.0372 68.612 62.618 68.612C61.308 68.612 59.998 68.612 58.688 68.612C58.2688 68.612 57.7448 68.7678 57.64 68.0926C57.5876 67.5732 57.5876 67.1058 58.164 66.8461C60.0504 66.067 60.2076 64.405 60.2076 62.7429C60.26 58.3281 60.2076 53.9133 60.2076 49.4984C60.2076 49.2907 60.2076 49.0829 60.2076 48.9271C60.26 48.5635 60.0504 47.9922 60.5744 47.9922C61.1508 47.9922 60.9936 48.5635 60.9936 48.9271C61.0984 51.3163 61.046 53.8094 61.046 56.3024Z" fill="#EDF5FE"/>
<path d="M60.522 73.4937C59.5788 73.4937 58.6356 73.4937 57.64 73.4937C57.2208 73.4937 56.8016 73.4418 56.7492 72.9224C56.6968 72.351 57.116 72.1433 57.64 72.0913C58.2164 72.0394 58.8452 72.0913 59.4216 72.0394C59.6312 72.0394 59.9456 72.0394 59.998 71.6758C60.0504 71.3123 59.736 71.1045 59.474 71.1045C58.8976 71.0526 58.2688 71.0526 57.6924 71.0526C57.2208 71.0526 56.7492 70.8967 56.7492 70.3254C56.7492 69.806 57.2208 69.7021 57.64 69.7021C59.6312 69.7021 61.6224 69.7021 63.666 69.7021C64.0852 69.7021 64.5044 69.858 64.5044 70.3774C64.5044 70.8448 64.1376 71.0526 63.7184 71.1045C63.2992 71.1564 62.8276 71.1564 62.7752 71.6239C62.7228 72.1952 63.3516 72.0394 63.666 72.0913C64.0852 72.1952 64.5044 72.351 64.452 72.8185C64.452 73.3898 63.9804 73.4937 63.5088 73.4937C62.5132 73.4937 61.5176 73.4937 60.522 73.4937Z" fill="#EDF5FE"/>
<path d="M80.3816 83.3618C74.146 83.3618 67.858 83.3618 61.6224 83.3618C67.858 81.544 74.0936 81.2843 80.3816 83.3618Z" fill="#EDF5FE"/>
<path d="M40.6624 83.3622C46.8456 81.4405 53.0288 81.3885 59.212 83.3622C53.0288 83.3622 46.8456 83.3622 40.6624 83.3622Z" fill="#EDF5FE"/>
<path d="M60.6792 75.6232C59.8932 75.4674 58.7404 75.8829 58.7404 75.0519C58.7404 74.2209 59.8408 74.7922 60.4696 74.6364C60.522 74.6364 60.5744 74.6364 60.6268 74.6364C61.2556 74.7922 62.4084 74.2728 62.4084 75C62.4084 76.0387 61.2032 75.2597 60.6792 75.6232Z" fill="#EDF5FE"/>
<path d="M76.4516 56.1978C75.8752 56.0939 75.0892 56.4055 75.0892 55.5745C75.0892 54.6396 75.98 55.0032 76.504 55.0032C76.9756 55.0032 77.814 54.7435 77.814 55.5745C77.7616 56.4575 76.8708 56.042 76.4516 56.1978Z" fill="#298FFE"/>
<path d="M71.2116 65.5996C72.05 65.8593 72.6264 66.4826 72.9408 67.2617C73.0456 67.5214 72.7312 67.8849 72.4168 67.7811C71.6308 67.5214 71.1068 66.8981 70.74 66.2229C70.5304 65.8074 70.8448 65.7035 71.2116 65.5996Z" fill="#298FFE"/>
<path d="M44.9068 56.1466C44.3304 56.0947 43.5444 56.3544 43.5444 55.5753C43.5444 54.7443 44.3304 55.004 44.802 55.004C45.326 55.004 46.2168 54.6923 46.1644 55.6272C46.112 56.4583 45.2736 55.9389 44.9068 56.1466Z" fill="#298FFE"/>
<path d="M50.6184 66.1181C50.1992 66.7414 49.7276 67.4685 48.8892 67.7282C48.5748 67.8321 48.2604 67.4685 48.4176 67.1569C48.8368 66.4297 49.256 65.7026 50.1992 65.5987C50.4612 65.5468 50.6708 65.7545 50.6184 66.1181Z" fill="#298FFE"/>
<path d="M57.64 58.38C56.4872 58.1723 56.33 58.7436 56.1728 59.3669C56.1204 59.6785 56.0156 59.9902 55.6488 59.9382C55.282 59.8863 55.2296 59.5746 55.2296 59.263C55.0724 57.9645 56.2252 56.9257 57.4828 57.2374C57.9544 57.3932 58.426 57.549 58.3212 58.1203C58.164 58.7436 57.6924 58.3281 57.64 58.38Z" fill="#298FFE"/>
<path d="M55.4392 50.3809C56.4348 50.3809 56.9588 50.9003 57.2732 51.7313C57.4304 52.1468 57.6924 52.7701 57.0636 53.0298C56.3824 53.3414 56.4872 52.6142 56.33 52.2507C56.1204 51.7832 55.806 51.5755 55.282 51.6274C54.9152 51.6274 54.234 51.991 54.1816 51.3677C54.1816 50.5886 54.8628 50.3809 55.4392 50.3809Z" fill="#298FFE"/>
<path d="M66.1288 59.0027C66.1288 59.4701 66.1288 59.8856 65.6572 59.9376C65.1332 59.9895 65.238 59.5221 65.1332 59.2104C64.9236 58.4833 64.6092 58.0158 63.7708 58.4313C63.5088 58.5872 63.142 58.5352 62.9848 58.2236C62.7752 57.8081 63.0896 57.5484 63.404 57.3926C63.9804 57.1329 64.5568 57.029 65.1332 57.3406C65.8144 57.7042 66.0764 58.3275 66.1288 59.0027Z" fill="#298FFE"/>
<path d="M65.6572 50.3809C66.3908 50.4328 67.1244 50.5367 67.072 51.2638C67.072 51.939 66.3908 51.5755 65.9716 51.5755C65.2904 51.5235 64.976 51.8871 64.8712 52.5104C64.8188 52.822 64.714 53.0817 64.2948 53.0817C63.8232 53.0298 63.7184 52.6662 63.7708 52.3026C63.9804 51.2119 64.5568 50.4847 65.6572 50.3809Z" fill="#298FFE"/>
</svg>
