<svg width="24" height="25" viewBox="0 0 24 25" fill="none" xmlns="http://www.w3.org/2000/svg">
<path d="M13.0002 11.7502C12.9356 11.7502 12.875 11.728 12.8237 11.6767C12.729 11.5819 12.729 11.4185 12.8237 11.3238L21.0238 3.12379L20.6734 2.77348L21.0238 3.12379C21.1185 3.02905 21.2819 3.02905 21.3766 3.12379C21.4714 3.21853 21.4714 3.38194 21.3766 3.47668L13.1766 11.6767C13.1253 11.728 13.0647 11.7502 13.0002 11.7502Z" fill="#007AFF" stroke="#007AFF"/>
<path d="M21.7502 3.25V2.75H21.2502H17.2002C17.0663 2.75 16.9502 2.63386 16.9502 2.5C16.9502 2.36614 17.0663 2.25 17.2002 2.25H22.0002C22.134 2.25 22.2502 2.36614 22.2502 2.5V7.30002C22.2502 7.43388 22.134 7.55002 22.0002 7.55002C21.8663 7.55002 21.7502 7.43388 21.7502 7.30002V3.25Z" fill="#007AFF" stroke="#007AFF"/>
<path d="M15.0002 23.25H9.00024C3.57024 23.25 1.25024 20.93 1.25024 15.5V9.5C1.25024 4.07 3.57024 1.75 9.00024 1.75H11.0002C11.4102 1.75 11.7502 2.09 11.7502 2.5C11.7502 2.91 11.4102 3.25 11.0002 3.25H9.00024C4.39024 3.25 2.75024 4.89 2.75024 9.5V15.5C2.75024 20.11 4.39024 21.75 9.00024 21.75H15.0002C19.6102 21.75 21.2502 20.11 21.2502 15.5V13.5C21.2502 13.09 21.5902 12.75 22.0002 12.75C22.4102 12.75 22.7502 13.09 22.7502 13.5V15.5C22.7502 20.93 20.4302 23.25 15.0002 23.25Z" fill="#007AFF"/>
</svg>
