<svg width="801" height="248" viewBox="0 0 801 248" fill="none" xmlns="http://www.w3.org/2000/svg">
<path d="M213.9 9.7999C186.84 3.7299 158.02 0.649902 128.24 0.649902C98.46 0.649902 69.48 3.74989 42.49 9.85989C25.02 13.7899 11.05 27.3299 6.89001 44.3699C2.32001 63.1799 0 82.8099 0 102.72C0 122.63 2.53001 144.08 7.51001 163.6C11.51 179.19 23.59 191.15 39.05 194.8C59.1 199.55 80.4 202.65 102.38 204C104.25 204.12 106 203.25 107.04 201.67C108.09 200.08 108.22 198.12 107.37 196.41L97.28 176.08C95.47 172.43 92 169.96 88.01 169.46C78.4 168.26 68.98 166.59 60.02 164.49C50.58 162.29 42.95 155.39 40.12 146.48C35.75 132.49 33.54 117.77 33.54 102.71C33.54 87.6499 35.67 73.5499 39.86 59.8099C42.78 50.3699 50.5 43.1399 60.02 40.9299C80.93 36.0699 104.52 33.4899 128.24 33.4899C151.96 33.4899 175.55 36.0599 196.46 40.9299C205.92 43.1299 213.54 50.0399 216.33 58.9499C220.7 72.8299 222.91 87.5499 222.91 102.71C222.91 106.87 222.73 111.15 222.37 115.41C221.5 126.05 219.47 136.51 216.33 146.47C213.54 155.4 206.11 162.15 196.45 164.51C178.12 168.99 156.26 170.77 141.15 171.47C138.15 171.61 135.56 173.17 134.03 175.76C132.5 178.36 132.39 181.39 133.73 184.09L165.03 247.15L181.24 214.49C185.51 205.88 193.7 199.66 203.15 197.86C207.74 196.99 212.24 196.03 216.53 195.02C232.59 191.26 245.1 178.9 249.16 162.77C254 143.53 256.46 123.32 256.46 102.69C256.46 82.0599 254.15 63.0999 249.6 44.3699C245.37 27.0399 231.69 13.7799 213.9 9.7699V9.7999Z" fill="#2C50FF"/>
<path d="M128.22 135.11C145.584 135.11 159.66 121.034 159.66 103.67C159.66 86.3062 145.584 72.23 128.22 72.23C110.856 72.23 96.7803 86.3062 96.7803 103.67C96.7803 121.034 110.856 135.11 128.22 135.11Z" fill="#2C50FF"/>
<path d="M445.01 85.2298C438.5 79.7798 430.24 77.0498 420.24 77.0498C406.11 77.0498 394.68 82.6698 385.94 93.9098C377.75 104.4 374.11 116.47 375.02 130.12C375.59 138.63 378.53 145.59 383.84 150.98C389.17 156.39 396.69 159.13 404.09 158.8C413.14 158.39 420.8 154.66 427.06 147.6L424.98 157.59H446.24L454.89 116.01C455.59 112.51 455.84 109.25 455.64 106.21C455.07 97.6798 451.53 90.6798 445.01 85.2298ZM426.71 128.94C421.73 136.56 415.96 140.37 409.41 140.37C406.05 140.37 403.36 139.19 401.35 136.84C399.34 134.49 398.21 131.4 397.95 127.57C397.45 120.16 399.14 113.17 402.99 106.59C407.27 99.2598 412.98 95.5998 420.13 95.5998C428 95.5998 432.22 99.8698 432.79 108.4C433.24 115.18 431.21 122.03 426.69 128.94H426.71Z" fill="#2C50FF"/>
<path d="M528.53 84.1898C522.47 79.4198 514.94 77.0398 505.97 77.0398C493.93 77.0398 484.84 80.2698 478.72 86.7198C473.52 92.2998 469.63 101.25 467.05 113.57L460.67 144.15C459.26 150.93 464.92 157.59 472.1 157.59H472.12C477.04 157.59 481.14 154.36 482.12 149.71L489.08 116.57C490.7 109.04 492.54 103.75 494.59 100.71C497.04 97.2998 500.55 95.5898 505.1 95.5898C511.74 95.5898 515.28 98.8998 515.72 105.52C515.87 107.77 515.6 110.45 514.92 113.57L508.54 144.15C507.13 150.93 512.79 157.59 519.97 157.59C524.9 157.59 529.01 154.35 529.97 149.69L537.6 112.95C538.34 109.45 538.61 106.14 538.4 103.02C537.88 95.2398 534.59 88.9598 528.52 84.1898H528.53Z" fill="#2C50FF"/>
<path d="M365.95 144.46C364.36 140.4 360.29 137.67 355.94 137.67H328.63L342.65 70.2598C344.06 63.4798 338.39 56.8198 331.21 56.8198C326.27 56.8198 322.17 60.0598 321.2 64.7198L306.11 137.34C303.99 147.55 312.53 157.58 323.33 157.57L357.34 157.54C364.17 157.54 368.55 151.02 366.02 144.66C365.99 144.59 365.97 144.53 365.94 144.46H365.95Z" fill="#2C50FF"/>
<path d="M615.55 84.9798C609.13 79.6898 600.92 77.0498 590.92 77.0498C576.88 77.0498 565.52 82.5398 556.85 93.5298C548.65 103.94 545 115.9 545.91 129.43C546.52 138.51 549.87 145.73 555.98 151.1C561.73 156.26 568.8 158.84 577.18 158.84C584.5 158.84 590.57 157.69 595.4 155.41C592.94 164.44 586.3 168.96 575.5 168.96C572.06 168.96 568.73 168.75 565.51 168.32C560.59 167.67 556.2 170.72 555.24 175.37C554.09 181 558.38 186.68 564.34 187.37C567.9 187.79 571.39 188 574.79 188C587.26 188 597.05 184.91 604.17 178.73C611.29 172.55 616.2 162.99 618.91 150.04L624.65 122.32C625.9 116.24 626.38 111 626.09 106.59C625.48 97.4698 621.97 90.2698 615.55 84.9898V84.9798ZM598.73 129.87C594.43 136.86 588.71 140.36 581.56 140.36C573.69 140.36 569.45 135.86 568.85 126.87C568.34 119.29 569.99 112.36 573.78 106.08C577.99 99.0898 583.68 95.5898 590.82 95.5898C598.86 95.5898 603.18 100.06 603.78 109.01C604.29 116.59 602.6 123.54 598.73 129.86V129.87Z" fill="#2C50FF"/>
<path d="M653.56 69.0698H669L670.96 59.0898C671.61 55.7898 668.85 52.5698 665.36 52.5698H655.4C652.19 52.5698 649.54 54.6898 648.93 57.7198L647.97 62.5298C647.31 65.8298 650.07 69.0598 653.57 69.0598L653.56 69.0698Z" fill="#2C50FF"/>
<path d="M644.69 78.2898L631.07 144.15C629.67 150.93 635.34 157.59 642.51 157.59C647.45 157.59 651.56 154.34 652.52 149.68L667.28 78.2998H644.68L644.69 78.2898Z" fill="#2C50FF"/>
<path d="M728.28 72.0798L728.37 71.6298C729.41 66.6298 725.44 61.6698 720.14 61.3198C717.64 61.1498 715.05 61.0698 712.35 61.0698C702.43 61.0698 694.69 63.0898 689.1 67.1298C683.52 71.1698 679.81 77.6198 677.98 86.4898L666.05 144.16C664.65 150.94 670.32 157.61 677.5 157.61C682.44 157.61 686.54 154.37 687.52 149.71L694.82 114.78H708.44C712.57 114.78 716.01 112.07 716.84 108.17C718.04 102.47 713.28 96.8598 707.24 96.8598H698.41L699.53 91.6198C700.52 86.7498 702.3 83.2798 704.87 81.1898C707.43 79.1098 711.42 78.0698 716.82 78.0698C717.88 78.0698 718.97 78.0998 720.07 78.1498C724.07 78.3498 727.51 75.8698 728.29 72.0998L728.28 72.0798Z" fill="#2C50FF"/>
<path d="M789.38 78.29C784.46 78.29 780.37 81.51 779.38 86.15L773.57 113.56C771.55 123.47 769.45 130.25 767.27 133.91C764.75 138.2 761.12 140.34 756.4 140.34C750.06 140.34 746.66 136.93 746.2 130.1C745.99 126.94 746.7 121.42 748.35 113.55L752.97 91.75C754.41 84.96 748.74 78.28 741.55 78.28H741.51C736.59 78.28 732.49 81.51 731.51 86.15L724.25 120.61C723.24 125.31 722.9 130.04 723.22 134.78C723.73 142.48 726.33 148.45 730.99 152.7C735.35 156.78 740.93 158.82 747.74 158.82C753.83 158.82 759.5 157.72 764.75 155.51C763.23 160.21 761.12 163.54 758.4 165.5C755.32 167.79 750.91 168.93 745.16 168.93C741.72 168.93 738.39 168.72 735.17 168.29C730.25 167.64 725.86 170.69 724.9 175.34C723.75 180.97 728.04 186.65 734 187.34C737.56 187.76 741.05 187.97 744.45 187.97C756.92 187.97 766.69 184.86 773.76 178.64C780.83 172.42 785.76 162.79 788.55 149.76L800.78 91.73C802.21 84.95 796.54 78.27 789.35 78.27L789.38 78.29Z" fill="#2C50FF"/>
</svg>
