<svg width="801" height="247" viewBox="0 0 801 247" fill="none" xmlns="http://www.w3.org/2000/svg">
<path d="M213.9 9.14999C186.84 3.07999 158.02 0 128.24 0C98.46 0 69.48 3.09999 42.49 9.20999C25.02 13.14 11.05 26.68 6.89001 43.72C2.32001 62.53 0 82.16 0 102.07C0 121.98 2.53001 143.43 7.51001 162.95C11.51 178.54 23.59 190.5 39.05 194.15C59.1 198.9 80.4 202 102.38 203.35C104.25 203.47 106 202.6 107.04 201.02C108.09 199.43 108.22 197.47 107.37 195.76L97.28 175.43C95.47 171.78 92 169.31 88.01 168.81C78.4 167.61 68.98 165.94 60.02 163.84C50.58 161.64 42.95 154.74 40.12 145.83C35.75 131.84 33.54 117.12 33.54 102.06C33.54 87 35.67 72.9 39.86 59.16C42.78 49.72 50.5 42.49 60.02 40.28C80.93 35.42 104.52 32.84 128.24 32.84C151.96 32.84 175.55 35.41 196.46 40.28C205.92 42.48 213.54 49.39 216.33 58.3C220.7 72.18 222.91 86.9 222.91 102.06C222.91 106.22 222.73 110.5 222.37 114.76C221.5 125.4 219.47 135.86 216.33 145.82C213.54 154.75 206.11 161.5 196.45 163.86C178.12 168.34 156.26 170.12 141.15 170.82C138.15 170.96 135.56 172.52 134.03 175.11C132.5 177.71 132.39 180.74 133.73 183.44L165.03 246.5L181.24 213.84C185.51 205.23 193.7 199.01 203.15 197.21C207.74 196.34 212.24 195.38 216.53 194.37C232.59 190.61 245.1 178.25 249.16 162.12C254 142.88 256.46 122.67 256.46 102.04C256.46 81.41 254.15 62.45 249.6 43.72C245.37 26.39 231.69 13.13 213.9 9.12V9.14999Z" fill="white"/>
<path d="M128.22 134.46C145.584 134.46 159.66 120.384 159.66 103.02C159.66 85.6562 145.584 71.5801 128.22 71.5801C110.856 71.5801 96.7803 85.6562 96.7803 103.02C96.7803 120.384 110.856 134.46 128.22 134.46Z" fill="white"/>
<path d="M445.01 84.5799C438.5 79.1299 430.24 76.3999 420.24 76.3999C406.11 76.3999 394.68 82.0199 385.94 93.2599C377.75 103.75 374.11 115.82 375.02 129.47C375.59 137.98 378.53 144.94 383.84 150.33C389.17 155.74 396.69 158.48 404.09 158.15C413.14 157.74 420.8 154.01 427.06 146.95L424.98 156.94H446.24L454.89 115.36C455.59 111.86 455.84 108.6 455.64 105.56C455.07 97.0299 451.53 90.0299 445.01 84.5799ZM426.71 128.29C421.73 135.91 415.96 139.72 409.41 139.72C406.05 139.72 403.36 138.54 401.35 136.19C399.34 133.84 398.21 130.75 397.95 126.92C397.45 119.51 399.14 112.52 402.99 105.94C407.27 98.6099 412.98 94.9499 420.13 94.9499C428 94.9499 432.22 99.2199 432.79 107.75C433.24 114.53 431.21 121.38 426.69 128.29H426.71Z" fill="white"/>
<path d="M528.53 83.5399C522.47 78.7699 514.94 76.3899 505.97 76.3899C493.93 76.3899 484.84 79.6199 478.72 86.0699C473.52 91.6499 469.63 100.6 467.05 112.92L460.67 143.5C459.26 150.28 464.92 156.94 472.1 156.94H472.12C477.04 156.94 481.14 153.71 482.12 149.06L489.08 115.92C490.7 108.39 492.54 103.1 494.59 100.06C497.04 96.6499 500.55 94.9399 505.1 94.9399C511.74 94.9399 515.28 98.2499 515.72 104.87C515.87 107.12 515.6 109.8 514.92 112.92L508.54 143.5C507.13 150.28 512.79 156.94 519.97 156.94C524.9 156.94 529.01 153.7 529.97 149.04L537.6 112.3C538.34 108.8 538.61 105.49 538.4 102.37C537.88 94.5899 534.59 88.3099 528.52 83.5399H528.53Z" fill="white"/>
<path d="M365.95 143.81C364.36 139.75 360.29 137.02 355.94 137.02H328.63L342.65 69.6099C344.06 62.8299 338.39 56.1699 331.21 56.1699C326.27 56.1699 322.17 59.4099 321.2 64.0699L306.11 136.69C303.99 146.9 312.53 156.93 323.33 156.92L357.34 156.89C364.17 156.89 368.55 150.37 366.02 144.01C365.99 143.94 365.97 143.88 365.94 143.81H365.95Z" fill="white"/>
<path d="M615.55 84.3299C609.13 79.0399 600.92 76.3999 590.92 76.3999C576.88 76.3999 565.52 81.8899 556.85 92.8799C548.65 103.29 545 115.25 545.91 128.78C546.52 137.86 549.87 145.08 555.98 150.45C561.73 155.61 568.8 158.19 577.18 158.19C584.5 158.19 590.57 157.04 595.4 154.76C592.94 163.79 586.3 168.31 575.5 168.31C572.06 168.31 568.73 168.1 565.51 167.67C560.59 167.02 556.2 170.07 555.24 174.72C554.09 180.35 558.38 186.03 564.34 186.72C567.9 187.14 571.39 187.35 574.79 187.35C587.26 187.35 597.05 184.26 604.17 178.08C611.29 171.9 616.2 162.34 618.91 149.39L624.65 121.67C625.9 115.59 626.38 110.35 626.09 105.94C625.48 96.8199 621.97 89.6199 615.55 84.3399V84.3299ZM598.73 129.22C594.43 136.21 588.71 139.71 581.56 139.71C573.69 139.71 569.45 135.21 568.85 126.22C568.34 118.64 569.99 111.71 573.78 105.43C577.99 98.4399 583.68 94.9399 590.82 94.9399C598.86 94.9399 603.18 99.4099 603.78 108.36C604.29 115.94 602.6 122.89 598.73 129.21V129.22Z" fill="white"/>
<path d="M653.56 68.4199H669L670.96 58.4399C671.61 55.1399 668.85 51.9199 665.36 51.9199H655.4C652.19 51.9199 649.54 54.0399 648.93 57.0699L647.97 61.8799C647.31 65.1799 650.07 68.4099 653.57 68.4099L653.56 68.4199Z" fill="white"/>
<path d="M644.69 77.6399L631.07 143.5C629.67 150.28 635.34 156.94 642.51 156.94C647.45 156.94 651.56 153.69 652.52 149.03L667.28 77.6499H644.68L644.69 77.6399Z" fill="white"/>
<path d="M728.28 71.4299L728.37 70.9799C729.41 65.9799 725.44 61.0199 720.14 60.6699C717.64 60.4999 715.05 60.4199 712.35 60.4199C702.43 60.4199 694.69 62.4399 689.1 66.4799C683.52 70.5199 679.81 76.9699 677.98 85.8399L666.05 143.51C664.65 150.29 670.32 156.96 677.5 156.96C682.44 156.96 686.54 153.72 687.52 149.06L694.82 114.13H708.44C712.57 114.13 716.01 111.42 716.84 107.52C718.04 101.82 713.28 96.2099 707.24 96.2099H698.41L699.53 90.9699C700.52 86.0999 702.3 82.6299 704.87 80.5399C707.43 78.4599 711.42 77.4199 716.82 77.4199C717.88 77.4199 718.97 77.4499 720.07 77.4999C724.07 77.6999 727.51 75.2199 728.29 71.4499L728.28 71.4299Z" fill="white"/>
<path d="M789.38 77.6401C784.46 77.6401 780.37 80.8601 779.38 85.5001L773.57 112.91C771.55 122.82 769.45 129.6 767.27 133.26C764.75 137.55 761.12 139.69 756.4 139.69C750.06 139.69 746.66 136.28 746.2 129.45C745.99 126.29 746.7 120.77 748.35 112.9L752.97 91.1001C754.41 84.3101 748.74 77.6301 741.55 77.6301H741.51C736.59 77.6301 732.49 80.8601 731.51 85.5001L724.25 119.96C723.24 124.66 722.9 129.39 723.22 134.13C723.73 141.83 726.33 147.8 730.99 152.05C735.35 156.13 740.93 158.17 747.74 158.17C753.83 158.17 759.5 157.07 764.75 154.86C763.23 159.56 761.12 162.89 758.4 164.85C755.32 167.14 750.91 168.28 745.16 168.28C741.72 168.28 738.39 168.07 735.17 167.64C730.25 166.99 725.86 170.04 724.9 174.69C723.75 180.32 728.04 186 734 186.69C737.56 187.11 741.05 187.32 744.45 187.32C756.92 187.32 766.69 184.21 773.76 177.99C780.83 171.77 785.76 162.14 788.55 149.11L800.78 91.0801C802.21 84.3001 796.54 77.6201 789.35 77.6201L789.38 77.6401Z" fill="white"/>
</svg>
