<svg width="390" height="329" viewBox="0 0 390 329" fill="none" xmlns="http://www.w3.org/2000/svg">
<path d="M-101.795 207.12C-80.9694 213.46 -33.4525 223.665 -9.98904 213.766C13.4744 203.867 29.6995 167.349 39.2465 150.794C47.813 133.581 67.842 102.433 82.9549 98.4038C83.6004 97.9787 97.1395 91.8388 95.1544 101.477C95.0441 102.012 90.7917 114.532 80.6876 101.286C70.5835 88.0388 82.0498 51.3297 93.8729 45.3942C105.696 39.4588 142.817 32.5984 166.269 54.1786C170.109 57.2031 179.065 65.1894 179.993 71.5206C180.92 77.8519 177.599 77.7254 168.092 72.4163C158.584 67.1073 138.956 62.3498 131.996 68.8825C125.08 75.3745 123.4 72.6923 116.738 94.2045C111.408 111.414 103.808 102.806 103.546 95.9504C103.531 92.4121 104.88 84.0569 110.396 78.9425C115.913 73.8282 120.943 83.7215 122.768 89.3075C123.984 95.1401 128.045 103.234 134.559 88.9473C142.7 71.0892 139.82 68.8208 160.897 74.8405C177.562 79.5999 162.303 98.2412 152.273 107.28C152.046 107.484 151.927 107.771 151.951 108.075C152.451 114.612 155.948 126.848 156.071 130.78C156.138 132.916 151.043 131.054 146.664 129.148C146.03 128.872 145.304 129.3 145.171 129.978C144.89 131.418 144.312 133.052 143.304 133.172C141.588 133.377 133.355 130.005 130.663 132.241C127.971 134.477 136.193 137.744 137.053 139.14C138.307 141.176 139.995 149.236 128.094 150.131C116.193 151.027 103.045 141.722 98.1549 138.378C94.1198 135.618 54.3286 115.491 24.705 126.585C-3.34929 137.091 -21.2027 151.728 -30.7487 189.95C-36.2091 211.813 0.676388 216.615 17.2741 224.968C42.0452 237.434 102.969 250.449 114.244 228.213C125.519 205.977 127.098 173.928 104.542 164.254C81.9852 154.581 49.8601 223.871 91.243 239.659C132.626 255.446 168.894 257.586 201.717 252.631" stroke="#007AFF" stroke-width="3"/>
<path d="M405 319.213C384.614 322.105 352.746 322.225 351.88 310.512C350.797 295.871 341.677 241.127 312.452 237.874C310.285 237.492 302.167 235.323 290.262 229.197C278.187 222.985 251.835 198.831 246.964 196.119C242.093 193.408 238.846 204.253 245.341 209.134C251.835 214.014 271.318 229.197 273.483 234.078C275.038 237.581 271.62 253.374 273.483 264.444C274.958 273.206 292.966 306.198 317.863 277.459C337.781 254.467 311.008 218.352 295.132 203.169C291.524 197.927 285.823 185.383 291.885 177.14C299.462 166.837 297.297 145.147 289.179 135.929C281.06 126.71 245.881 115.323 233.974 123.999C222.067 132.675 209.078 131.591 223.15 146.774C234.407 158.92 234.515 168.625 235.056 172.802C235.597 179.671 238.52 192.432 245.88 188.528C255.081 183.648 257.787 161.034 245.88 169.006C239.927 173.887 230.185 183.105 230.726 175.514C231.267 167.922 229.104 162.499 223.15 160.33C217.196 158.161 211.783 146.232 211.783 142.978C211.783 139.788 199.297 144.938 204.93 168.14C205.151 169.051 205.116 170.027 204.82 170.915C202.251 178.61 203.978 177.311 199.876 180.394C197.221 182.389 196.517 185.148 196.495 187.061C196.484 187.995 197.114 188.771 197.95 189.189L199.876 190.155L200.12 190.317C200.982 190.893 201.5 191.862 201.5 192.899V195.222C201.5 195.546 201.658 195.849 201.922 196.035V196.035C202.001 196.091 202.087 196.134 202.179 196.166C204.379 196.916 208.419 198.641 207.995 199.915C207.454 201.542 202.042 203.013 203.124 207.893C204.206 212.773 206.371 221.449 214.49 219.28C222.608 217.111 232.855 213.18 236.68 213.315C241.14 213.474 243.929 213.823 239.386 218.352C235.549 222.177 212.866 220.521 209.077 229.197C205.289 237.874 200.959 243.838 201.5 258.479C202.042 273.12 201.5 296.599 194.465 306.198C189.4 313.109 179.852 330.058 133.848 319.755C87.8444 309.452 97.5863 296.438 64.0308 300.233C48.1095 302.053 12.0136 309.953 -5 327" stroke="#007AFF" stroke-width="3.10474"/>
<path opacity="0.8" d="M311.412 116.849V89.9564C311.412 86.5087 314.808 85.4744 316.506 84.0953C318.204 82.7162 340.616 76.8551 349.106 71.6835C357.595 66.512 357.935 53.0659 351.822 40.9989C346.951 31.3826 344.884 30.9623 337.542 28.9199C333.042 27.6679 328.362 26.9478 323.724 27.5099C287.551 31.8947 256.071 51.8011 250.967 58.927C245.75 66.2102 248.36 74.1292 251.583 83.9049L251.658 84.1333C251.876 84.795 252.158 85.4388 252.57 86.0005C259.731 95.7596 280.466 94.7542 290.698 93.7489C299.119 92.9214 304.394 106.735 305.979 113.746C307.087 117.883 311.412 123.468 311.412 116.849Z" fill="#C0C0C0"/>
<path opacity="0.8" d="M309.167 121.851V94.9593C309.167 91.5116 312.582 90.4773 314.289 89.0982C315.996 87.7191 338.532 81.858 347.068 76.6865C355.604 71.5149 355.945 58.0688 349.799 46.0018C344.886 36.355 342.809 35.9626 335.37 33.9033C330.892 32.6635 326.236 31.9504 321.622 32.5038C285.218 36.8702 253.525 56.7991 248.389 63.9299C242.926 71.5149 244.656 80.2632 249.413 90.1325C255.99 100.82 277.753 99.7861 288.338 98.7518C296.806 97.9244 302.11 111.738 303.704 118.749C304.818 122.886 309.167 128.471 309.167 121.851Z" stroke="#007AFF" stroke-width="3"/>
<path d="M159 142.916C157.833 145.298 154.8 150.634 152 152.921" stroke="#007AFF" stroke-width="2.5" stroke-linecap="round"/>
<path d="M153 142.916C151.889 145.139 151.667 146.784 149 148.919" stroke="#007AFF" stroke-width="2.5" stroke-linecap="round"/>
<path d="M166 140.916C164 147.016 157.6 159.757 148 161.926" stroke="#007AFF" stroke-width="2.5" stroke-linecap="round"/>
<path d="M266 68.8831C279.972 61.4438 309.427 51.1828 320 48.874" stroke="#01050B" stroke-width="3"/>
<path d="M278 74.8853C291.732 67.6488 305.464 63.1247 314 60.8789" stroke="#01050B" stroke-width="3"/>
</svg>
