<svg width="358" height="364" viewBox="0 0 358 364" fill="none" xmlns="http://www.w3.org/2000/svg">
<rect x="0.5" y="0.5" width="357" height="363" rx="11.5" stroke="#E0E0E0"/>
<path d="M25.48 34.8L20.2 25.8H23.54L27.06 32.12L30.56 25.8H33.7L28.44 34.82V40H25.48V34.8ZM37.4691 40.34C36.4024 40.34 35.4491 40.1067 34.6091 39.64C33.7824 39.1733 33.1357 38.5333 32.6691 37.72C32.2157 36.9067 31.9891 36.0067 31.9891 35.02C31.9891 34.02 32.2157 33.1133 32.6691 32.3C33.1357 31.4867 33.7824 30.8467 34.6091 30.38C35.4491 29.9133 36.4024 29.68 37.4691 29.68C38.5357 29.68 39.4824 29.9133 40.3091 30.38C41.1491 30.8467 41.8024 31.4867 42.2691 32.3C42.7357 33.1133 42.9691 34.02 42.9691 35.02C42.9691 36.0067 42.7357 36.9067 42.2691 37.72C41.8024 38.5333 41.1491 39.1733 40.3091 39.64C39.4824 40.1067 38.5357 40.34 37.4691 40.34ZM37.4691 37.92C38.2691 37.92 38.9157 37.6467 39.4091 37.1C39.9024 36.5533 40.1491 35.86 40.1491 35.02C40.1491 34.1667 39.8957 33.4667 39.3891 32.92C38.8957 32.3733 38.2557 32.1 37.4691 32.1C36.6824 32.1 36.0424 32.3733 35.5491 32.92C35.0557 33.4667 34.8091 34.1667 34.8091 35.02C34.8091 35.8733 35.0557 36.5733 35.5491 37.12C36.0424 37.6533 36.6824 37.92 37.4691 37.92ZM48.2919 40.28C47.2385 40.28 46.4052 39.9333 45.7919 39.24C45.1919 38.5467 44.8919 37.6067 44.8919 36.42V30.04H47.7319V35.82C47.7319 37.14 48.2319 37.8 49.2319 37.8C49.7919 37.8 50.2785 37.5533 50.6919 37.06C51.1052 36.5667 51.3719 35.9667 51.4919 35.26V30.04H54.3119V40H51.4919V37.72C51.2119 38.4667 50.8052 39.08 50.2719 39.56C49.7519 40.04 49.0919 40.28 48.2919 40.28ZM56.9845 30.04H59.7845V32.82C60.3712 30.8067 61.2779 29.8 62.5045 29.8C62.8645 29.8 63.1512 29.86 63.3645 29.98L63.7645 32.82C63.6312 32.74 63.4512 32.6733 63.2245 32.62C63.0112 32.5533 62.7779 32.52 62.5245 32.52C61.7912 32.52 61.1912 32.8133 60.7245 33.4C60.2712 33.9867 59.9712 34.6933 59.8245 35.52V40H56.9845V30.04ZM71.4638 40.28C70.5038 40.28 69.7171 40 69.1038 39.44C68.4904 38.88 68.1838 38.1533 68.1838 37.26C68.1838 36.2333 68.5704 35.4133 69.3438 34.8C70.1304 34.1867 71.3038 33.88 72.8638 33.88H74.6038V33.8C74.6038 32.68 73.8971 32.12 72.4837 32.12C71.8438 32.12 71.1838 32.26 70.5038 32.54C69.8371 32.82 69.2904 33.1667 68.8638 33.58V30.92C69.3038 30.6 69.8971 30.32 70.6438 30.08C71.3904 29.84 72.1638 29.72 72.9638 29.72C74.4704 29.72 75.5838 30.1 76.3038 30.86C77.0238 31.6067 77.3838 32.6267 77.3838 33.92V39.08C77.3838 39.3867 77.4238 39.6933 77.5038 40H74.6838V38.32C74.3904 38.9067 73.9771 39.38 73.4438 39.74C72.9104 40.1 72.2504 40.28 71.4638 40.28ZM72.2638 38.28C72.7971 38.28 73.2704 38.0867 73.6838 37.7C74.0971 37.3133 74.4038 36.8267 74.6038 36.24V35.62H73.1238C72.3904 35.62 71.8504 35.7467 71.5038 36C71.1571 36.2533 70.9838 36.6067 70.9838 37.06C70.9838 37.4333 71.0971 37.7333 71.3238 37.96C71.5638 38.1733 71.8771 38.28 72.2638 38.28ZM84.7928 40.28C83.7395 40.28 82.7928 40.0467 81.9528 39.58C81.1261 39.1133 80.4795 38.48 80.0128 37.68C79.5595 36.88 79.3328 35.9933 79.3328 35.02C79.3328 34.0333 79.5595 33.14 80.0128 32.34C80.4795 31.54 81.1261 30.9067 81.9528 30.44C82.7928 29.9733 83.7395 29.74 84.7928 29.74C85.9261 29.74 86.8328 30.0067 87.5128 30.54V33.36C87.3128 33.08 86.9795 32.82 86.5128 32.58C86.0595 32.3267 85.5261 32.2 84.9128 32.2C84.0728 32.2 83.4061 32.4667 82.9128 33C82.4195 33.52 82.1728 34.1933 82.1728 35.02C82.1728 35.8467 82.4195 36.5267 82.9128 37.06C83.4061 37.58 84.0728 37.84 84.9128 37.84C85.4728 37.84 85.9795 37.7467 86.4328 37.56C86.8861 37.3733 87.2461 37.1133 87.5128 36.78V39.5C86.7795 40.02 85.8728 40.28 84.7928 40.28ZM93.878 40.28C92.8646 40.28 92.058 39.9933 91.458 39.42C90.858 38.8333 90.558 37.9667 90.558 36.82V32.3H88.698V30.96L93.378 27.28H93.398V30.04H95.838V32.3H93.398V36.4C93.398 36.9467 93.5113 37.34 93.738 37.58C93.978 37.82 94.318 37.94 94.758 37.94C95.2913 37.94 95.7713 37.7667 96.198 37.42L95.758 39.72C95.5846 39.88 95.3313 40.0133 94.998 40.12C94.6646 40.2267 94.2913 40.28 93.878 40.28ZM98.0783 30.04H100.918V40H98.0783V30.04ZM99.4983 28.44C99.0049 28.44 98.5983 28.2933 98.2783 28C97.9716 27.6933 97.8183 27.3133 97.8183 26.86C97.8183 26.4067 97.9716 26.0333 98.2783 25.74C98.5983 25.4333 99.0049 25.28 99.4983 25.28C99.9783 25.28 100.372 25.4333 100.678 25.74C100.998 26.0333 101.158 26.4067 101.158 26.86C101.158 27.3133 100.998 27.6933 100.678 28C100.372 28.2933 99.9783 28.44 99.4983 28.44ZM102.526 30.04H105.546L107.966 37.22L110.446 30.04H113.306L109.586 40H106.206L102.526 30.04ZM114.895 30.04H117.735V40H114.895V30.04ZM116.315 28.44C115.821 28.44 115.415 28.2933 115.095 28C114.788 27.6933 114.635 27.3133 114.635 26.86C114.635 26.4067 114.788 26.0333 115.095 25.74C115.415 25.4333 115.821 25.28 116.315 25.28C116.795 25.28 117.188 25.4333 117.495 25.74C117.815 26.0333 117.975 26.4067 117.975 26.86C117.975 27.3133 117.815 27.6933 117.495 28C117.188 28.2933 116.795 28.44 116.315 28.44ZM124.542 40.28C123.529 40.28 122.722 39.9933 122.122 39.42C121.522 38.8333 121.222 37.9667 121.222 36.82V32.3H119.362V30.96L124.042 27.28H124.062V30.04H126.502V32.3H124.062V36.4C124.062 36.9467 124.175 37.34 124.402 37.58C124.642 37.82 124.982 37.94 125.422 37.94C125.955 37.94 126.435 37.7667 126.862 37.42L126.422 39.72C126.249 39.88 125.995 40.0133 125.662 40.12C125.329 40.2267 124.955 40.28 124.542 40.28ZM131.742 39.24L127.482 30.04H130.622L133.262 36.36L135.882 30.04H138.742L132.662 43.88H129.602L131.742 39.24Z" fill="#212121"/>
<path d="M185.15 39.288C184.226 39.288 183.41 39.126 182.702 38.802C182.006 38.478 181.466 38.04 181.082 37.488C180.698 36.924 180.506 36.294 180.506 35.598C180.506 34.818 180.764 34.146 181.28 33.582C181.808 33.018 182.438 32.598 183.17 32.322C182.534 32.046 182 31.656 181.568 31.152C181.148 30.636 180.938 30.018 180.938 29.298C180.938 28.674 181.112 28.11 181.46 27.606C181.808 27.09 182.3 26.682 182.936 26.382C183.572 26.082 184.31 25.932 185.15 25.932C185.978 25.932 186.71 26.082 187.346 26.382C187.994 26.682 188.492 27.09 188.84 27.606C189.188 28.11 189.362 28.674 189.362 29.298C189.362 30.006 189.146 30.606 188.714 31.098C188.294 31.59 187.772 31.992 187.148 32.304C187.88 32.604 188.504 33.036 189.02 33.6C189.536 34.152 189.794 34.818 189.794 35.598C189.794 36.294 189.602 36.924 189.218 37.488C188.834 38.04 188.288 38.478 187.58 38.802C186.884 39.126 186.074 39.288 185.15 39.288ZM185.15 37.848C186.002 37.848 186.686 37.644 187.202 37.236C187.73 36.816 187.994 36.27 187.994 35.598C187.994 34.998 187.736 34.47 187.22 34.014C186.716 33.546 186.026 33.21 185.15 33.006C184.274 33.198 183.578 33.528 183.062 33.996C182.558 34.464 182.306 34.998 182.306 35.598C182.306 36.27 182.564 36.816 183.08 37.236C183.608 37.644 184.298 37.848 185.15 37.848ZM185.15 31.692C185.894 31.512 186.5 31.218 186.968 30.81C187.436 30.39 187.67 29.904 187.67 29.352C187.67 28.776 187.442 28.302 186.986 27.93C186.53 27.558 185.918 27.372 185.15 27.372C184.37 27.372 183.752 27.558 183.296 27.93C182.852 28.302 182.63 28.776 182.63 29.352C182.63 29.916 182.87 30.408 183.35 30.828C183.83 31.236 184.43 31.524 185.15 31.692ZM195.792 26.22H197.466V32.196C197.754 31.548 198.168 30.996 198.708 30.54C199.248 30.084 199.92 29.856 200.724 29.856C201.648 29.856 202.344 30.138 202.812 30.702C203.292 31.266 203.532 32.028 203.532 32.988V39H201.858V33.42C201.858 32.016 201.276 31.314 200.112 31.314C199.488 31.314 198.942 31.572 198.474 32.088C198.006 32.604 197.67 33.228 197.466 33.96V39H195.792V26.22ZM210.407 39.288C209.507 39.288 208.697 39.078 207.977 38.658C207.257 38.238 206.693 37.668 206.285 36.948C205.889 36.228 205.691 35.43 205.691 34.554C205.691 33.678 205.889 32.88 206.285 32.16C206.693 31.428 207.257 30.852 207.977 30.432C208.697 30.012 209.507 29.802 210.407 29.802C211.307 29.802 212.117 30.012 212.837 30.432C213.557 30.852 214.115 31.428 214.511 32.16C214.919 32.88 215.123 33.678 215.123 34.554C215.123 35.43 214.919 36.228 214.511 36.948C214.115 37.668 213.557 38.238 212.837 38.658C212.117 39.078 211.307 39.288 210.407 39.288ZM210.407 37.848C210.995 37.848 211.517 37.704 211.973 37.416C212.441 37.128 212.801 36.738 213.053 36.246C213.317 35.742 213.449 35.178 213.449 34.554C213.449 33.93 213.317 33.366 213.053 32.862C212.801 32.358 212.441 31.962 211.973 31.674C211.517 31.386 210.995 31.242 210.407 31.242C209.819 31.242 209.291 31.386 208.823 31.674C208.367 31.962 208.007 32.358 207.743 32.862C207.491 33.366 207.365 33.93 207.365 34.554C207.365 35.178 207.491 35.742 207.743 36.246C208.007 36.738 208.367 37.128 208.823 37.416C209.291 37.704 209.819 37.848 210.407 37.848ZM220.294 39.234C219.358 39.234 218.62 38.94 218.08 38.352C217.552 37.752 217.288 36.918 217.288 35.85V30.09H218.962V35.508C218.962 37.02 219.556 37.776 220.744 37.776C221.38 37.776 221.926 37.53 222.382 37.038C222.838 36.534 223.162 35.904 223.354 35.148V30.09H225.027V39H223.354V36.858C223.09 37.53 222.706 38.094 222.202 38.55C221.71 39.006 221.074 39.234 220.294 39.234ZM227.942 30.09H229.58V32.592C229.808 31.788 230.12 31.14 230.516 30.648C230.924 30.156 231.428 29.91 232.028 29.91C232.388 29.91 232.664 29.97 232.856 30.09L233.072 31.746C232.976 31.674 232.832 31.614 232.64 31.566C232.46 31.518 232.262 31.494 232.046 31.494C231.386 31.494 230.846 31.8 230.426 32.412C230.018 33.012 229.748 33.738 229.616 34.59V39H227.942V30.09ZM237.68 39.27C236.984 39.27 236.318 39.144 235.682 38.892C235.058 38.64 234.56 38.34 234.188 37.992V36.102C234.548 36.582 235.046 36.99 235.682 37.326C236.33 37.65 236.99 37.812 237.662 37.812C238.226 37.812 238.676 37.698 239.012 37.47C239.348 37.23 239.516 36.936 239.516 36.588C239.516 36.288 239.396 36.042 239.156 35.85C238.928 35.658 238.442 35.472 237.698 35.292L236.906 35.094C236.054 34.878 235.4 34.566 234.944 34.158C234.488 33.75 234.26 33.198 234.26 32.502C234.26 32.022 234.398 31.578 234.674 31.17C234.962 30.762 235.358 30.438 235.862 30.198C236.378 29.946 236.972 29.82 237.644 29.82C238.256 29.82 238.826 29.91 239.354 30.09C239.894 30.27 240.302 30.486 240.578 30.738V32.502C240.35 32.19 239.972 31.908 239.444 31.656C238.916 31.404 238.346 31.278 237.734 31.278C237.146 31.278 236.69 31.392 236.366 31.62C236.054 31.836 235.898 32.112 235.898 32.448C235.898 32.652 235.946 32.82 236.042 32.952C236.138 33.084 236.318 33.21 236.582 33.33C236.858 33.438 237.26 33.558 237.788 33.69L238.58 33.888C239.408 34.092 240.032 34.41 240.452 34.842C240.884 35.262 241.1 35.82 241.1 36.516C241.1 36.996 240.962 37.446 240.686 37.866C240.422 38.286 240.032 38.628 239.516 38.892C239 39.144 238.388 39.27 237.68 39.27ZM246.389 39C246.365 37.992 246.635 37.086 247.199 36.282C247.775 35.478 248.759 34.614 250.151 33.69C251.279 32.946 252.077 32.28 252.545 31.692C253.013 31.092 253.247 30.462 253.247 29.802C253.247 29.142 253.031 28.59 252.599 28.146C252.179 27.702 251.561 27.48 250.745 27.48C249.893 27.48 249.227 27.768 248.747 28.344C248.267 28.908 248.027 29.694 248.027 30.702H246.353C246.353 29.226 246.749 28.062 247.541 27.21C248.333 26.358 249.407 25.932 250.763 25.932C251.675 25.932 252.449 26.112 253.085 26.472C253.721 26.832 254.195 27.306 254.507 27.894C254.831 28.47 254.993 29.082 254.993 29.73C254.993 30.642 254.699 31.488 254.111 32.268C253.535 33.048 252.563 33.906 251.195 34.842C250.391 35.382 249.785 35.856 249.377 36.264C248.981 36.66 248.723 37.056 248.603 37.452H254.993V39H246.389ZM260.875 39.288C260.059 39.288 259.285 39.138 258.553 38.838C257.821 38.526 257.299 38.172 256.987 37.776V35.778C257.323 36.354 257.845 36.822 258.553 37.182C259.273 37.53 259.999 37.704 260.731 37.704C261.619 37.704 262.321 37.476 262.837 37.02C263.365 36.564 263.629 35.952 263.629 35.184C263.629 34.404 263.329 33.81 262.729 33.402C262.141 32.994 261.217 32.79 259.957 32.79H259.453V31.674L263.089 27.696H257.221V26.22H264.979V27.786L261.451 31.62C262.699 31.74 263.665 32.124 264.349 32.772C265.033 33.42 265.375 34.266 265.375 35.31C265.375 36.018 265.183 36.678 264.799 37.29C264.427 37.902 263.899 38.388 263.215 38.748C262.531 39.108 261.751 39.288 260.875 39.288ZM271.396 30.09H273.07V32.142C273.37 31.494 273.772 30.954 274.276 30.522C274.792 30.078 275.416 29.856 276.148 29.856C276.904 29.856 277.51 30.066 277.966 30.486C278.434 30.906 278.734 31.482 278.866 32.214C279.166 31.53 279.58 30.966 280.107 30.522C280.636 30.078 281.272 29.856 282.016 29.856C282.94 29.856 283.636 30.138 284.104 30.702C284.584 31.266 284.824 32.04 284.824 33.024V39H283.168V33.402C283.168 32.73 283.024 32.214 282.736 31.854C282.448 31.494 282.022 31.314 281.458 31.314C280.894 31.314 280.39 31.554 279.946 32.034C279.514 32.502 279.184 33.096 278.956 33.816V39H277.282V33.42C277.282 32.748 277.138 32.232 276.85 31.872C276.574 31.5 276.154 31.314 275.59 31.314C275.014 31.314 274.504 31.56 274.06 32.052C273.616 32.532 273.286 33.12 273.07 33.816V39H271.396V30.09ZM287.638 30.09H289.312V39H287.638V30.09ZM288.466 28.164C288.142 28.164 287.878 28.068 287.674 27.876C287.47 27.684 287.368 27.432 287.368 27.12C287.368 26.82 287.47 26.574 287.674 26.382C287.878 26.178 288.142 26.076 288.466 26.076C288.778 26.076 289.036 26.178 289.24 26.382C289.456 26.574 289.564 26.82 289.564 27.12C289.564 27.42 289.456 27.672 289.24 27.876C289.036 28.068 288.778 28.164 288.466 28.164ZM292.226 30.09H293.9V32.196C294.188 31.548 294.602 30.996 295.142 30.54C295.682 30.084 296.354 29.856 297.158 29.856C298.082 29.856 298.778 30.138 299.246 30.702C299.726 31.266 299.966 32.028 299.966 32.988V39H298.292V33.42C298.292 32.016 297.71 31.314 296.546 31.314C295.922 31.314 295.376 31.572 294.908 32.088C294.44 32.604 294.104 33.228 293.9 33.96V39H292.226V30.09ZM305.67 39.234C304.734 39.234 303.996 38.94 303.456 38.352C302.928 37.752 302.664 36.918 302.664 35.85V30.09H304.338V35.508C304.338 37.02 304.932 37.776 306.12 37.776C306.756 37.776 307.302 37.53 307.758 37.038C308.214 36.534 308.538 35.904 308.73 35.148V30.09H310.404V39H308.73V36.858C308.466 37.53 308.082 38.094 307.578 38.55C307.086 39.006 306.45 39.234 305.67 39.234ZM316.559 39.234C315.779 39.234 315.149 39.006 314.669 38.55C314.201 38.082 313.967 37.374 313.967 36.426V31.44H312.203V30.684L315.605 27.876H315.623V30.09H318.125V31.44H315.623V36.246C315.623 37.29 316.085 37.812 317.009 37.812C317.537 37.812 317.999 37.638 318.395 37.29L318.089 38.766C317.933 38.898 317.717 39.006 317.441 39.09C317.177 39.186 316.883 39.234 316.559 39.234ZM324.171 39.288C323.283 39.288 322.479 39.078 321.759 38.658C321.051 38.238 320.499 37.668 320.103 36.948C319.707 36.228 319.509 35.43 319.509 34.554C319.509 33.678 319.707 32.88 320.103 32.16C320.499 31.428 321.045 30.852 321.741 30.432C322.449 30.012 323.235 29.802 324.099 29.802C324.963 29.802 325.737 30.012 326.421 30.432C327.117 30.852 327.657 31.416 328.041 32.124C328.437 32.832 328.635 33.606 328.635 34.446L328.617 34.932H321.165C321.225 35.796 321.531 36.504 322.083 37.056C322.647 37.608 323.355 37.884 324.207 37.884C324.855 37.884 325.407 37.728 325.863 37.416C326.331 37.104 326.661 36.684 326.853 36.156H328.509C328.221 37.116 327.687 37.878 326.907 38.442C326.139 39.006 325.227 39.288 324.171 39.288ZM326.925 33.636C326.841 32.952 326.535 32.376 326.007 31.908C325.479 31.428 324.843 31.188 324.099 31.188C323.355 31.188 322.725 31.422 322.209 31.89C321.693 32.358 321.363 32.94 321.219 33.636H326.925ZM333.849 39.27C333.153 39.27 332.487 39.144 331.851 38.892C331.227 38.64 330.729 38.34 330.357 37.992V36.102C330.717 36.582 331.215 36.99 331.851 37.326C332.499 37.65 333.159 37.812 333.831 37.812C334.395 37.812 334.845 37.698 335.181 37.47C335.517 37.23 335.685 36.936 335.685 36.588C335.685 36.288 335.565 36.042 335.325 35.85C335.097 35.658 334.611 35.472 333.867 35.292L333.075 35.094C332.223 34.878 331.569 34.566 331.113 34.158C330.657 33.75 330.429 33.198 330.429 32.502C330.429 32.022 330.567 31.578 330.843 31.17C331.131 30.762 331.527 30.438 332.031 30.198C332.547 29.946 333.141 29.82 333.813 29.82C334.425 29.82 334.995 29.91 335.523 30.09C336.063 30.27 336.471 30.486 336.747 30.738V32.502C336.519 32.19 336.141 31.908 335.613 31.656C335.085 31.404 334.515 31.278 333.903 31.278C333.315 31.278 332.859 31.392 332.535 31.62C332.223 31.836 332.067 32.112 332.067 32.448C332.067 32.652 332.115 32.82 332.211 32.952C332.307 33.084 332.487 33.21 332.751 33.33C333.027 33.438 333.429 33.558 333.957 33.69L334.749 33.888C335.577 34.092 336.201 34.41 336.621 34.842C337.053 35.262 337.269 35.82 337.269 36.516C337.269 36.996 337.131 37.446 336.855 37.866C336.591 38.286 336.201 38.628 335.685 38.892C335.169 39.144 334.557 39.27 333.849 39.27Z" fill="#212121"/>
<line x1="20" y1="60.5" x2="338" y2="60.5" stroke="#EEEEEE"/>
<path d="M22.3358 82.688H20.2838V81.944C20.9798 81.896 21.5038 81.752 21.8558 81.512C22.2158 81.264 22.4398 80.92 22.5278 80.48H23.4398V89H22.3358V82.688ZM28.6696 89.192C27.9416 89.192 27.3216 88.996 26.8096 88.604C26.3056 88.212 25.9256 87.68 25.6696 87.008C25.4216 86.336 25.2976 85.58 25.2976 84.74C25.2976 83.9 25.4216 83.144 25.6696 82.472C25.9256 81.8 26.3056 81.268 26.8096 80.876C27.3216 80.484 27.9416 80.288 28.6696 80.288C29.3976 80.288 30.0136 80.484 30.5176 80.876C31.0216 81.268 31.4016 81.8 31.6576 82.472C31.9136 83.144 32.0416 83.9 32.0416 84.74C32.0416 85.58 31.9136 86.336 31.6576 87.008C31.4016 87.68 31.0216 88.212 30.5176 88.604C30.0136 88.996 29.3976 89.192 28.6696 89.192ZM28.6696 88.124C29.3976 88.124 29.9456 87.816 30.3136 87.2C30.6816 86.584 30.8656 85.76 30.8656 84.728C30.8656 83.704 30.6776 82.884 30.3016 82.268C29.9336 81.652 29.3896 81.344 28.6696 81.344C27.9416 81.344 27.3936 81.652 27.0256 82.268C26.6576 82.884 26.4736 83.704 26.4736 84.728C26.4736 85.76 26.6576 86.584 27.0256 87.2C27.3936 87.816 27.9416 88.124 28.6696 88.124ZM36.8024 89.192C36.0744 89.192 35.4544 88.996 34.9424 88.604C34.4384 88.212 34.0584 87.68 33.8024 87.008C33.5544 86.336 33.4304 85.58 33.4304 84.74C33.4304 83.9 33.5544 83.144 33.8024 82.472C34.0584 81.8 34.4384 81.268 34.9424 80.876C35.4544 80.484 36.0744 80.288 36.8024 80.288C37.5304 80.288 38.1464 80.484 38.6504 80.876C39.1544 81.268 39.5344 81.8 39.7904 82.472C40.0464 83.144 40.1744 83.9 40.1744 84.74C40.1744 85.58 40.0464 86.336 39.7904 87.008C39.5344 87.68 39.1544 88.212 38.6504 88.604C38.1464 88.996 37.5304 89.192 36.8024 89.192ZM36.8024 88.124C37.5304 88.124 38.0784 87.816 38.4464 87.2C38.8144 86.584 38.9984 85.76 38.9984 84.728C38.9984 83.704 38.8104 82.884 38.4344 82.268C38.0664 81.652 37.5224 81.344 36.8024 81.344C36.0744 81.344 35.5264 81.652 35.1584 82.268C34.7904 82.884 34.6064 83.704 34.6064 84.728C34.6064 85.76 34.7904 86.584 35.1584 87.2C35.5264 87.816 36.0744 88.124 36.8024 88.124ZM44.9352 89.192C44.2072 89.192 43.5872 88.996 43.0752 88.604C42.5712 88.212 42.1912 87.68 41.9352 87.008C41.6872 86.336 41.5632 85.58 41.5632 84.74C41.5632 83.9 41.6872 83.144 41.9352 82.472C42.1912 81.8 42.5712 81.268 43.0752 80.876C43.5872 80.484 44.2072 80.288 44.9352 80.288C45.6632 80.288 46.2792 80.484 46.7832 80.876C47.2872 81.268 47.6672 81.8 47.9232 82.472C48.1792 83.144 48.3072 83.9 48.3072 84.74C48.3072 85.58 48.1792 86.336 47.9232 87.008C47.6672 87.68 47.2872 88.212 46.7832 88.604C46.2792 88.996 45.6632 89.192 44.9352 89.192ZM44.9352 88.124C45.6632 88.124 46.2112 87.816 46.5792 87.2C46.9472 86.584 47.1312 85.76 47.1312 84.728C47.1312 83.704 46.9432 82.884 46.5672 82.268C46.1992 81.652 45.6552 81.344 44.9352 81.344C44.2072 81.344 43.6592 81.652 43.2912 82.268C42.9232 82.884 42.7392 83.704 42.7392 84.728C42.7392 85.76 42.9232 86.584 43.2912 87.2C43.6592 87.816 44.2072 88.124 44.9352 88.124Z" fill="#616161"/>
<path d="M26.4787 130.992C25.8627 130.992 25.3187 130.884 24.8467 130.668C24.3827 130.452 24.0227 130.16 23.7667 129.792C23.5107 129.416 23.3827 128.996 23.3827 128.532C23.3827 128.012 23.5547 127.564 23.8987 127.188C24.2507 126.812 24.6707 126.532 25.1587 126.348C24.7347 126.164 24.3787 125.904 24.0907 125.568C23.8107 125.224 23.6707 124.812 23.6707 124.332C23.6707 123.916 23.7867 123.54 24.0187 123.204C24.2507 122.86 24.5787 122.588 25.0027 122.388C25.4267 122.188 25.9187 122.088 26.4787 122.088C27.0307 122.088 27.5187 122.188 27.9427 122.388C28.3747 122.588 28.7067 122.86 28.9387 123.204C29.1707 123.54 29.2867 123.916 29.2867 124.332C29.2867 124.804 29.1427 125.204 28.8547 125.532C28.5747 125.86 28.2267 126.128 27.8107 126.336C28.2987 126.536 28.7147 126.824 29.0587 127.2C29.4027 127.568 29.5747 128.012 29.5747 128.532C29.5747 128.996 29.4467 129.416 29.1907 129.792C28.9347 130.16 28.5707 130.452 28.0987 130.668C27.6347 130.884 27.0947 130.992 26.4787 130.992ZM26.4787 130.032C27.0467 130.032 27.5027 129.896 27.8467 129.624C28.1987 129.344 28.3747 128.98 28.3747 128.532C28.3747 128.132 28.2027 127.78 27.8587 127.476C27.5227 127.164 27.0627 126.94 26.4787 126.804C25.8947 126.932 25.4307 127.152 25.0867 127.464C24.7507 127.776 24.5827 128.132 24.5827 128.532C24.5827 128.98 24.7547 129.344 25.0987 129.624C25.4507 129.896 25.9107 130.032 26.4787 130.032ZM26.4787 125.928C26.9747 125.808 27.3787 125.612 27.6907 125.34C28.0027 125.06 28.1587 124.736 28.1587 124.368C28.1587 123.984 28.0067 123.668 27.7027 123.42C27.3987 123.172 26.9907 123.048 26.4787 123.048C25.9587 123.048 25.5467 123.172 25.2427 123.42C24.9467 123.668 24.7987 123.984 24.7987 124.368C24.7987 124.744 24.9587 125.072 25.2787 125.352C25.5987 125.624 25.9987 125.816 26.4787 125.928ZM34.3024 130.992C33.5744 130.992 32.9544 130.796 32.4424 130.404C31.9384 130.012 31.5584 129.48 31.3024 128.808C31.0544 128.136 30.9304 127.38 30.9304 126.54C30.9304 125.7 31.0544 124.944 31.3024 124.272C31.5584 123.6 31.9384 123.068 32.4424 122.676C32.9544 122.284 33.5744 122.088 34.3024 122.088C35.0304 122.088 35.6464 122.284 36.1504 122.676C36.6544 123.068 37.0344 123.6 37.2904 124.272C37.5464 124.944 37.6744 125.7 37.6744 126.54C37.6744 127.38 37.5464 128.136 37.2904 128.808C37.0344 129.48 36.6544 130.012 36.1504 130.404C35.6464 130.796 35.0304 130.992 34.3024 130.992ZM34.3024 129.924C35.0304 129.924 35.5784 129.616 35.9464 129C36.3144 128.384 36.4984 127.56 36.4984 126.528C36.4984 125.504 36.3104 124.684 35.9344 124.068C35.5664 123.452 35.0224 123.144 34.3024 123.144C33.5744 123.144 33.0264 123.452 32.6584 124.068C32.2904 124.684 32.1064 125.504 32.1064 126.528C32.1064 127.56 32.2904 128.384 32.6584 129C33.0264 129.616 33.5744 129.924 34.3024 129.924ZM42.4352 130.992C41.7072 130.992 41.0872 130.796 40.5752 130.404C40.0712 130.012 39.6912 129.48 39.4352 128.808C39.1872 128.136 39.0632 127.38 39.0632 126.54C39.0632 125.7 39.1872 124.944 39.4352 124.272C39.6912 123.6 40.0712 123.068 40.5752 122.676C41.0872 122.284 41.7072 122.088 42.4352 122.088C43.1632 122.088 43.7792 122.284 44.2832 122.676C44.7872 123.068 45.1672 123.6 45.4232 124.272C45.6792 124.944 45.8072 125.7 45.8072 126.54C45.8072 127.38 45.6792 128.136 45.4232 128.808C45.1672 129.48 44.7872 130.012 44.2832 130.404C43.7792 130.796 43.1632 130.992 42.4352 130.992ZM42.4352 129.924C43.1632 129.924 43.7112 129.616 44.0792 129C44.4472 128.384 44.6312 127.56 44.6312 126.528C44.6312 125.504 44.4432 124.684 44.0672 124.068C43.6992 123.452 43.1552 123.144 42.4352 123.144C41.7072 123.144 41.1592 123.452 40.7912 124.068C40.4232 124.684 40.2392 125.504 40.2392 126.528C40.2392 127.56 40.4232 128.384 40.7912 129C41.1592 129.616 41.7072 129.924 42.4352 129.924Z" fill="#616161"/>
<path d="M26.6129 172.792C25.6849 172.792 24.9369 172.504 24.3689 171.928C24.0329 171.592 23.7729 171.16 23.5889 170.632C23.4129 170.096 23.3249 169.476 23.3249 168.772C23.3249 167.748 23.4769 166.872 23.7809 166.144C24.0849 165.408 24.5129 164.848 25.0649 164.464C25.6169 164.08 26.2569 163.888 26.9849 163.888C27.4089 163.888 27.8049 163.956 28.1729 164.092C28.5489 164.228 28.8569 164.388 29.0969 164.572V165.82C28.9209 165.596 28.6449 165.396 28.2689 165.22C27.8929 165.036 27.4849 164.944 27.0449 164.944C26.2529 164.944 25.6249 165.26 25.1609 165.892C24.6969 166.516 24.4569 167.376 24.4409 168.472C24.5929 168.072 24.8689 167.716 25.2689 167.404C25.6769 167.092 26.1929 166.936 26.8169 166.936C27.3929 166.936 27.8889 167.064 28.3049 167.32C28.7289 167.568 29.0489 167.908 29.2649 168.34C29.4889 168.772 29.6009 169.248 29.6009 169.768C29.6009 170.296 29.4769 170.792 29.2289 171.256C28.9889 171.72 28.6409 172.092 28.1849 172.372C27.7369 172.652 27.2129 172.792 26.6129 172.792ZM26.5409 171.796C26.9329 171.796 27.2769 171.708 27.5729 171.532C27.8689 171.356 28.0969 171.116 28.2569 170.812C28.4249 170.508 28.5089 170.172 28.5089 169.804C28.5089 169.252 28.3289 168.796 27.9689 168.436C27.6089 168.068 27.1329 167.884 26.5409 167.884C26.1489 167.884 25.8009 167.972 25.4969 168.148C25.2009 168.316 24.9729 168.548 24.8129 168.844C24.6529 169.132 24.5729 169.452 24.5729 169.804C24.5729 170.164 24.6529 170.496 24.8129 170.8C24.9729 171.104 25.2009 171.348 25.4969 171.532C25.8009 171.708 26.1489 171.796 26.5409 171.796ZM34.3024 172.792C33.5744 172.792 32.9544 172.596 32.4424 172.204C31.9384 171.812 31.5584 171.28 31.3024 170.608C31.0544 169.936 30.9304 169.18 30.9304 168.34C30.9304 167.5 31.0544 166.744 31.3024 166.072C31.5584 165.4 31.9384 164.868 32.4424 164.476C32.9544 164.084 33.5744 163.888 34.3024 163.888C35.0304 163.888 35.6464 164.084 36.1504 164.476C36.6544 164.868 37.0344 165.4 37.2904 166.072C37.5464 166.744 37.6744 167.5 37.6744 168.34C37.6744 169.18 37.5464 169.936 37.2904 170.608C37.0344 171.28 36.6544 171.812 36.1504 172.204C35.6464 172.596 35.0304 172.792 34.3024 172.792ZM34.3024 171.724C35.0304 171.724 35.5784 171.416 35.9464 170.8C36.3144 170.184 36.4984 169.36 36.4984 168.328C36.4984 167.304 36.3104 166.484 35.9344 165.868C35.5664 165.252 35.0224 164.944 34.3024 164.944C33.5744 164.944 33.0264 165.252 32.6584 165.868C32.2904 166.484 32.1064 167.304 32.1064 168.328C32.1064 169.36 32.2904 170.184 32.6584 170.8C33.0264 171.416 33.5744 171.724 34.3024 171.724ZM42.4352 172.792C41.7072 172.792 41.0872 172.596 40.5752 172.204C40.0712 171.812 39.6912 171.28 39.4352 170.608C39.1872 169.936 39.0632 169.18 39.0632 168.34C39.0632 167.5 39.1872 166.744 39.4352 166.072C39.6912 165.4 40.0712 164.868 40.5752 164.476C41.0872 164.084 41.7072 163.888 42.4352 163.888C43.1632 163.888 43.7792 164.084 44.2832 164.476C44.7872 164.868 45.1672 165.4 45.4232 166.072C45.6792 166.744 45.8072 167.5 45.8072 168.34C45.8072 169.18 45.6792 169.936 45.4232 170.608C45.1672 171.28 44.7872 171.812 44.2832 172.204C43.7792 172.596 43.1632 172.792 42.4352 172.792ZM42.4352 171.724C43.1632 171.724 43.7112 171.416 44.0792 170.8C44.4472 170.184 44.6312 169.36 44.6312 168.328C44.6312 167.304 44.4432 166.484 44.0672 165.868C43.6992 165.252 43.1552 164.944 42.4352 164.944C41.7072 164.944 41.1592 165.252 40.7912 165.868C40.4232 166.484 40.2392 167.304 40.2392 168.328C40.2392 169.36 40.4232 170.184 40.7912 170.8C41.1592 171.416 41.7072 171.724 42.4352 171.724Z" fill="#616161"/>
<path d="M27.533 212.384H23.309V211.352L27.293 205.88H28.613L24.569 211.412H27.533V209.144H28.637V211.412H29.873V212.384H28.637V214.4H27.533V212.384ZM34.3024 214.592C33.5744 214.592 32.9544 214.396 32.4424 214.004C31.9384 213.612 31.5584 213.08 31.3024 212.408C31.0544 211.736 30.9304 210.98 30.9304 210.14C30.9304 209.3 31.0544 208.544 31.3024 207.872C31.5584 207.2 31.9384 206.668 32.4424 206.276C32.9544 205.884 33.5744 205.688 34.3024 205.688C35.0304 205.688 35.6464 205.884 36.1504 206.276C36.6544 206.668 37.0344 207.2 37.2904 207.872C37.5464 208.544 37.6744 209.3 37.6744 210.14C37.6744 210.98 37.5464 211.736 37.2904 212.408C37.0344 213.08 36.6544 213.612 36.1504 214.004C35.6464 214.396 35.0304 214.592 34.3024 214.592ZM34.3024 213.524C35.0304 213.524 35.5784 213.216 35.9464 212.6C36.3144 211.984 36.4984 211.16 36.4984 210.128C36.4984 209.104 36.3104 208.284 35.9344 207.668C35.5664 207.052 35.0224 206.744 34.3024 206.744C33.5744 206.744 33.0264 207.052 32.6584 207.668C32.2904 208.284 32.1064 209.104 32.1064 210.128C32.1064 211.16 32.2904 211.984 32.6584 212.6C33.0264 213.216 33.5744 213.524 34.3024 213.524ZM42.4352 214.592C41.7072 214.592 41.0872 214.396 40.5752 214.004C40.0712 213.612 39.6912 213.08 39.4352 212.408C39.1872 211.736 39.0632 210.98 39.0632 210.14C39.0632 209.3 39.1872 208.544 39.4352 207.872C39.6912 207.2 40.0712 206.668 40.5752 206.276C41.0872 205.884 41.7072 205.688 42.4352 205.688C43.1632 205.688 43.7792 205.884 44.2832 206.276C44.7872 206.668 45.1672 207.2 45.4232 207.872C45.6792 208.544 45.8072 209.3 45.8072 210.14C45.8072 210.98 45.6792 211.736 45.4232 212.408C45.1672 213.08 44.7872 213.612 44.2832 214.004C43.7792 214.396 43.1632 214.592 42.4352 214.592ZM42.4352 213.524C43.1632 213.524 43.7112 213.216 44.0792 212.6C44.4472 211.984 44.6312 211.16 44.6312 210.128C44.6312 209.104 44.4432 208.284 44.0672 207.668C43.6992 207.052 43.1552 206.744 42.4352 206.744C41.7072 206.744 41.1592 207.052 40.7912 207.668C40.4232 208.284 40.2392 209.104 40.2392 210.128C40.2392 211.16 40.4232 211.984 40.7912 212.6C41.1592 213.216 41.7072 213.524 42.4352 213.524Z" fill="#616161"/>
<path d="M23.7931 256.2C23.7771 255.528 23.9571 254.924 24.3331 254.388C24.7171 253.852 25.3731 253.276 26.3011 252.66C27.0531 252.164 27.5851 251.72 27.8971 251.328C28.2091 250.928 28.3651 250.508 28.3651 250.068C28.3651 249.628 28.2211 249.26 27.9331 248.964C27.6531 248.668 27.2411 248.52 26.6971 248.52C26.1291 248.52 25.6851 248.712 25.3651 249.096C25.0451 249.472 24.8851 249.996 24.8851 250.668H23.7691C23.7691 249.684 24.0331 248.908 24.5611 248.34C25.0891 247.772 25.8051 247.488 26.7091 247.488C27.3171 247.488 27.8331 247.608 28.2571 247.848C28.6811 248.088 28.9971 248.404 29.2051 248.796C29.4211 249.18 29.5291 249.588 29.5291 250.02C29.5291 250.628 29.3331 251.192 28.9411 251.712C28.5571 252.232 27.9091 252.804 26.9971 253.428C26.4611 253.788 26.0571 254.104 25.7851 254.376C25.5211 254.64 25.3491 254.904 25.2691 255.168H29.5291V256.2H23.7931ZM34.3024 256.392C33.5744 256.392 32.9544 256.196 32.4424 255.804C31.9384 255.412 31.5584 254.88 31.3024 254.208C31.0544 253.536 30.9304 252.78 30.9304 251.94C30.9304 251.1 31.0544 250.344 31.3024 249.672C31.5584 249 31.9384 248.468 32.4424 248.076C32.9544 247.684 33.5744 247.488 34.3024 247.488C35.0304 247.488 35.6464 247.684 36.1504 248.076C36.6544 248.468 37.0344 249 37.2904 249.672C37.5464 250.344 37.6744 251.1 37.6744 251.94C37.6744 252.78 37.5464 253.536 37.2904 254.208C37.0344 254.88 36.6544 255.412 36.1504 255.804C35.6464 256.196 35.0304 256.392 34.3024 256.392ZM34.3024 255.324C35.0304 255.324 35.5784 255.016 35.9464 254.4C36.3144 253.784 36.4984 252.96 36.4984 251.928C36.4984 250.904 36.3104 250.084 35.9344 249.468C35.5664 248.852 35.0224 248.544 34.3024 248.544C33.5744 248.544 33.0264 248.852 32.6584 249.468C32.2904 250.084 32.1064 250.904 32.1064 251.928C32.1064 252.96 32.2904 253.784 32.6584 254.4C33.0264 255.016 33.5744 255.324 34.3024 255.324ZM42.4352 256.392C41.7072 256.392 41.0872 256.196 40.5752 255.804C40.0712 255.412 39.6912 254.88 39.4352 254.208C39.1872 253.536 39.0632 252.78 39.0632 251.94C39.0632 251.1 39.1872 250.344 39.4352 249.672C39.6912 249 40.0712 248.468 40.5752 248.076C41.0872 247.684 41.7072 247.488 42.4352 247.488C43.1632 247.488 43.7792 247.684 44.2832 248.076C44.7872 248.468 45.1672 249 45.4232 249.672C45.6792 250.344 45.8072 251.1 45.8072 251.94C45.8072 252.78 45.6792 253.536 45.4232 254.208C45.1672 254.88 44.7872 255.412 44.2832 255.804C43.7792 256.196 43.1632 256.392 42.4352 256.392ZM42.4352 255.324C43.1632 255.324 43.7112 255.016 44.0792 254.4C44.4472 253.784 44.6312 252.96 44.6312 251.928C44.6312 250.904 44.4432 250.084 44.0672 249.468C43.6992 248.852 43.1552 248.544 42.4352 248.544C41.7072 248.544 41.1592 248.852 40.7912 249.468C40.4232 250.084 40.2392 250.904 40.2392 251.928C40.2392 252.96 40.4232 253.784 40.7912 254.4C41.1592 255.016 41.7072 255.324 42.4352 255.324Z" fill="#616161"/>
<path d="M34.9352 298.192C34.2072 298.192 33.5872 297.996 33.0752 297.604C32.5712 297.212 32.1912 296.68 31.9352 296.008C31.6872 295.336 31.5632 294.58 31.5632 293.74C31.5632 292.9 31.6872 292.144 31.9352 291.472C32.1912 290.8 32.5712 290.268 33.0752 289.876C33.5872 289.484 34.2072 289.288 34.9352 289.288C35.6632 289.288 36.2792 289.484 36.7832 289.876C37.2872 290.268 37.6672 290.8 37.9232 291.472C38.1792 292.144 38.3072 292.9 38.3072 293.74C38.3072 294.58 38.1792 295.336 37.9232 296.008C37.6672 296.68 37.2872 297.212 36.7832 297.604C36.2792 297.996 35.6632 298.192 34.9352 298.192ZM34.9352 297.124C35.6632 297.124 36.2112 296.816 36.5792 296.2C36.9472 295.584 37.1312 294.76 37.1312 293.728C37.1312 292.704 36.9432 291.884 36.5672 291.268C36.1992 290.652 35.6552 290.344 34.9352 290.344C34.2072 290.344 33.6592 290.652 33.2912 291.268C32.9232 291.884 32.7392 292.704 32.7392 293.728C32.7392 294.76 32.9232 295.584 33.2912 296.2C33.6592 296.816 34.2072 297.124 34.9352 297.124Z" fill="#616161"/>
<mask id="mask0_3_2822" style="mask-type:luminance" maskUnits="userSpaceOnUse" x="61" y="77" width="277" height="236">
<rect x="61" y="77" width="277" height="236" fill="white"/>
</mask>
<g mask="url(#mask0_3_2822)">
<path fill-rule="evenodd" clip-rule="evenodd" d="M355.153 71.2236C355.153 71.2236 343.017 105.02 336.482 105.02C317.953 105.02 321.233 88.4081 303.809 88.4081C282.963 88.4081 286.76 153.399 265.833 157.5C242.871 162 247.705 105.02 224.149 105.02C200.592 105.02 207.153 152.563 190.853 152.563C182.763 152.563 154.446 143.097 144.799 189.495C135.153 235.893 104.371 246 88.7883 162C55.8039 21.0876 35.2665 114.185 35.2665 114.185V333H364.488L355.153 71.2236Z" fill="url(#paint0_linear_3_2822)" stroke="#007AFF" stroke-width="5" stroke-linejoin="round"/>
</g>
<path d="M69.8105 332.48H71.4905L74.2385 338.12L76.9745 332.48H78.5705V341H77.4665V334.628V333.812L74.7425 339.44H73.7105L70.9145 333.716L70.9265 334.628V341H69.8105V332.48ZM83.1826 341.192C82.5826 341.192 82.0426 341.052 81.5626 340.772C81.0826 340.492 80.7066 340.112 80.4346 339.632C80.1706 339.152 80.0386 338.62 80.0386 338.036C80.0386 337.452 80.1706 336.92 80.4346 336.44C80.7066 335.952 81.0826 335.568 81.5626 335.288C82.0426 335.008 82.5826 334.868 83.1826 334.868C83.7826 334.868 84.3226 335.008 84.8026 335.288C85.2826 335.568 85.6546 335.952 85.9186 336.44C86.1906 336.92 86.3266 337.452 86.3266 338.036C86.3266 338.62 86.1906 339.152 85.9186 339.632C85.6546 340.112 85.2826 340.492 84.8026 340.772C84.3226 341.052 83.7826 341.192 83.1826 341.192ZM83.1826 340.232C83.5746 340.232 83.9226 340.136 84.2266 339.944C84.5386 339.752 84.7786 339.492 84.9466 339.164C85.1226 338.828 85.2106 338.452 85.2106 338.036C85.2106 337.62 85.1226 337.244 84.9466 336.908C84.7786 336.572 84.5386 336.308 84.2266 336.116C83.9226 335.924 83.5746 335.828 83.1826 335.828C82.7906 335.828 82.4386 335.924 82.1266 336.116C81.8226 336.308 81.5826 336.572 81.4066 336.908C81.2386 337.244 81.1546 337.62 81.1546 338.036C81.1546 338.452 81.2386 338.828 81.4066 339.164C81.5826 339.492 81.8226 339.752 82.1266 339.944C82.4386 340.136 82.7906 340.232 83.1826 340.232ZM87.8417 335.06H88.9577V336.464C89.1497 336.032 89.4257 335.664 89.7857 335.36C90.1457 335.056 90.5937 334.904 91.1297 334.904C91.7457 334.904 92.2097 335.092 92.5217 335.468C92.8417 335.844 93.0017 336.352 93.0017 336.992V341H91.8857V337.28C91.8857 336.344 91.4977 335.876 90.7217 335.876C90.3057 335.876 89.9417 336.048 89.6297 336.392C89.3177 336.736 89.0937 337.152 88.9577 337.64V341H87.8417V335.06Z" fill="#616161"/>
<path d="M112.888 333.476H110.368V332.48H116.572V333.476H114.04V341H112.888V333.476ZM118.431 341.156C117.807 341.156 117.315 340.96 116.955 340.568C116.603 340.168 116.427 339.612 116.427 338.9V335.06H117.543V338.672C117.543 339.68 117.939 340.184 118.731 340.184C119.155 340.184 119.519 340.02 119.823 339.692C120.127 339.356 120.343 338.936 120.471 338.432V335.06H121.587V341H120.471V339.572C120.295 340.02 120.039 340.396 119.703 340.7C119.375 341.004 118.951 341.156 118.431 341.156ZM126.206 341.192C125.614 341.192 125.078 341.052 124.598 340.772C124.126 340.492 123.758 340.112 123.494 339.632C123.23 339.152 123.098 338.62 123.098 338.036C123.098 337.452 123.23 336.92 123.494 336.44C123.758 335.952 124.122 335.568 124.586 335.288C125.058 335.008 125.582 334.868 126.158 334.868C126.734 334.868 127.25 335.008 127.706 335.288C128.17 335.568 128.53 335.944 128.786 336.416C129.05 336.888 129.182 337.404 129.182 337.964L129.17 338.288H124.202C124.242 338.864 124.446 339.336 124.814 339.704C125.19 340.072 125.662 340.256 126.23 340.256C126.662 340.256 127.03 340.152 127.334 339.944C127.646 339.736 127.866 339.456 127.994 339.104H129.098C128.906 339.744 128.55 340.252 128.03 340.628C127.518 341.004 126.91 341.192 126.206 341.192ZM128.042 337.424C127.986 336.968 127.782 336.584 127.43 336.272C127.078 335.952 126.654 335.792 126.158 335.792C125.662 335.792 125.242 335.948 124.898 336.26C124.554 336.572 124.334 336.96 124.238 337.424H128.042Z" fill="#616161"/>
<path d="M145.493 332.48H146.729L148.697 339.644L150.737 332.48H151.997L153.977 339.656L155.945 332.48H157.145L154.709 341H153.281L151.361 333.98L149.393 341H147.965L145.493 332.48ZM160.477 341.192C159.885 341.192 159.349 341.052 158.869 340.772C158.397 340.492 158.029 340.112 157.765 339.632C157.501 339.152 157.369 338.62 157.369 338.036C157.369 337.452 157.501 336.92 157.765 336.44C158.029 335.952 158.393 335.568 158.857 335.288C159.329 335.008 159.853 334.868 160.429 334.868C161.005 334.868 161.521 335.008 161.977 335.288C162.441 335.568 162.801 335.944 163.057 336.416C163.321 336.888 163.453 337.404 163.453 337.964L163.441 338.288H158.473C158.513 338.864 158.717 339.336 159.085 339.704C159.461 340.072 159.933 340.256 160.501 340.256C160.933 340.256 161.301 340.152 161.605 339.944C161.917 339.736 162.137 339.456 162.265 339.104H163.369C163.177 339.744 162.821 340.252 162.301 340.628C161.789 341.004 161.181 341.192 160.477 341.192ZM162.313 337.424C162.257 336.968 162.053 336.584 161.701 336.272C161.349 335.952 160.925 335.792 160.429 335.792C159.933 335.792 159.513 335.948 159.169 336.26C158.825 336.572 158.605 336.96 158.509 337.424H162.313ZM167.229 341.156C166.709 341.156 166.245 341.02 165.837 340.748C165.429 340.476 165.109 340.104 164.877 339.632C164.653 339.152 164.541 338.616 164.541 338.024C164.541 337.432 164.657 336.9 164.889 336.428C165.121 335.956 165.441 335.584 165.849 335.312C166.257 335.04 166.721 334.904 167.241 334.904C167.817 334.904 168.297 335.064 168.681 335.384C169.073 335.696 169.385 336.092 169.617 336.572V332.48H170.733V341H169.617V339.488C169.385 339.968 169.073 340.368 168.681 340.688C168.297 341 167.813 341.156 167.229 341.156ZM167.445 340.196C167.981 340.196 168.437 339.992 168.813 339.584C169.189 339.176 169.469 338.652 169.653 338.012C169.485 337.396 169.209 336.884 168.825 336.476C168.441 336.06 167.985 335.852 167.457 335.852C167.105 335.852 166.793 335.944 166.521 336.128C166.249 336.312 166.037 336.568 165.885 336.896C165.733 337.224 165.657 337.6 165.657 338.024C165.657 338.448 165.733 338.824 165.885 339.152C166.037 339.48 166.249 339.736 166.521 339.92C166.793 340.104 167.101 340.196 167.445 340.196Z" fill="#616161"/>
<path d="M189.492 333.476H186.972V332.48H193.176V333.476H190.644V341H189.492V333.476ZM194.31 332.48H195.426V336.464C195.618 336.032 195.894 335.664 196.254 335.36C196.614 335.056 197.062 334.904 197.598 334.904C198.214 334.904 198.678 335.092 198.99 335.468C199.31 335.844 199.47 336.352 199.47 336.992V341H198.354V337.28C198.354 336.344 197.966 335.876 197.19 335.876C196.774 335.876 196.41 336.048 196.098 336.392C195.786 336.736 195.562 337.152 195.426 337.64V341H194.31V332.48ZM203.273 341.156C202.649 341.156 202.157 340.96 201.797 340.568C201.445 340.168 201.269 339.612 201.269 338.9V335.06H202.385V338.672C202.385 339.68 202.781 340.184 203.573 340.184C203.997 340.184 204.361 340.02 204.665 339.692C204.969 339.356 205.185 338.936 205.313 338.432V335.06H206.429V341H205.313V339.572C205.137 340.02 204.881 340.396 204.545 340.7C204.217 341.004 203.793 341.156 203.273 341.156Z" fill="#616161"/>
<path d="M229.745 332.48H234.797V333.464H230.897V336.296H234.413V337.28H230.897V341H229.745V332.48ZM235.799 335.06H236.891V336.728C237.043 336.192 237.251 335.76 237.515 335.432C237.787 335.104 238.123 334.94 238.523 334.94C238.763 334.94 238.947 334.98 239.075 335.06L239.219 336.164C239.155 336.116 239.059 336.076 238.931 336.044C238.811 336.012 238.679 335.996 238.535 335.996C238.095 335.996 237.735 336.2 237.455 336.608C237.183 337.008 237.003 337.492 236.915 338.06V341H235.799V335.06ZM240.452 335.06H241.568V341H240.452V335.06ZM241.004 333.776C240.788 333.776 240.612 333.712 240.476 333.584C240.34 333.456 240.272 333.288 240.272 333.08C240.272 332.88 240.34 332.716 240.476 332.588C240.612 332.452 240.788 332.384 241.004 332.384C241.212 332.384 241.384 332.452 241.52 332.588C241.664 332.716 241.736 332.88 241.736 333.08C241.736 333.28 241.664 333.448 241.52 333.584C241.384 333.712 241.212 333.776 241.004 333.776Z" fill="#616161"/>
<path d="M268.648 341.192C268 341.192 267.392 341.072 266.824 340.832C266.264 340.592 265.84 340.304 265.552 339.968V338.444C265.84 338.956 266.276 339.368 266.86 339.68C267.444 339.984 268.024 340.136 268.6 340.136C269.16 340.136 269.596 340.008 269.908 339.752C270.22 339.496 270.376 339.172 270.376 338.78C270.376 338.436 270.256 338.14 270.016 337.892C269.784 337.644 269.324 337.432 268.636 337.256L267.88 337.064C267.112 336.872 266.54 336.588 266.164 336.212C265.796 335.836 265.612 335.344 265.612 334.736C265.612 334.304 265.732 333.9 265.972 333.524C266.22 333.148 266.572 332.848 267.028 332.624C267.492 332.4 268.032 332.288 268.648 332.288C269.176 332.288 269.668 332.372 270.124 332.54C270.58 332.708 270.936 332.908 271.192 333.14V334.52C270.984 334.208 270.644 333.936 270.172 333.704C269.708 333.464 269.212 333.344 268.684 333.344C268.284 333.344 267.94 333.408 267.652 333.536C267.372 333.664 267.16 333.832 267.016 334.04C266.88 334.248 266.812 334.472 266.812 334.712C266.812 334.928 266.856 335.112 266.944 335.264C267.032 335.408 267.2 335.544 267.448 335.672C267.704 335.8 268.076 335.932 268.564 336.068L269.32 336.272C270.08 336.48 270.644 336.784 271.012 337.184C271.38 337.576 271.564 338.088 271.564 338.72C271.564 339.176 271.448 339.592 271.216 339.968C270.992 340.336 270.66 340.632 270.22 340.856C269.78 341.08 269.256 341.192 268.648 341.192ZM274.726 341.156C274.142 341.156 273.666 340.992 273.298 340.664C272.93 340.336 272.746 339.9 272.746 339.356C272.746 338.748 272.974 338.268 273.43 337.916C273.894 337.556 274.582 337.376 275.494 337.376H276.766V337.268C276.766 336.34 276.278 335.876 275.302 335.876C274.878 335.876 274.47 335.968 274.078 336.152C273.694 336.336 273.382 336.564 273.142 336.836V335.66C273.39 335.46 273.722 335.284 274.138 335.132C274.554 334.972 274.994 334.892 275.458 334.892C276.266 334.892 276.866 335.104 277.258 335.528C277.658 335.944 277.858 336.52 277.858 337.256V340.472C277.858 340.64 277.882 340.816 277.93 341H276.814V339.824C276.646 340.192 276.382 340.508 276.022 340.772C275.67 341.028 275.238 341.156 274.726 341.156ZM274.954 340.244C275.378 340.244 275.746 340.104 276.058 339.824C276.37 339.544 276.606 339.184 276.766 338.744V338.228H275.554C274.994 338.228 274.57 338.32 274.282 338.504C274.002 338.688 273.862 338.952 273.862 339.296C273.862 339.584 273.958 339.816 274.15 339.992C274.35 340.16 274.618 340.244 274.954 340.244ZM281.886 341.156C281.366 341.156 280.946 341.004 280.626 340.7C280.314 340.388 280.158 339.916 280.158 339.284V335.96H278.982V335.456L281.25 333.584H281.262V335.06H282.93V335.96H281.262V339.164C281.262 339.86 281.57 340.208 282.186 340.208C282.538 340.208 282.846 340.092 283.11 339.86L282.906 340.844C282.802 340.932 282.658 341.004 282.474 341.06C282.298 341.124 282.102 341.156 281.886 341.156Z" fill="#616161"/>
<path d="M305.895 341.192C305.247 341.192 304.639 341.072 304.071 340.832C303.511 340.592 303.087 340.304 302.799 339.968V338.444C303.087 338.956 303.523 339.368 304.107 339.68C304.691 339.984 305.271 340.136 305.847 340.136C306.407 340.136 306.843 340.008 307.155 339.752C307.467 339.496 307.623 339.172 307.623 338.78C307.623 338.436 307.503 338.14 307.263 337.892C307.031 337.644 306.571 337.432 305.883 337.256L305.127 337.064C304.359 336.872 303.787 336.588 303.411 336.212C303.043 335.836 302.859 335.344 302.859 334.736C302.859 334.304 302.979 333.9 303.219 333.524C303.467 333.148 303.819 332.848 304.275 332.624C304.739 332.4 305.279 332.288 305.895 332.288C306.423 332.288 306.915 332.372 307.371 332.54C307.827 332.708 308.183 332.908 308.439 333.14V334.52C308.231 334.208 307.891 333.936 307.419 333.704C306.955 333.464 306.459 333.344 305.931 333.344C305.531 333.344 305.187 333.408 304.899 333.536C304.619 333.664 304.407 333.832 304.263 334.04C304.127 334.248 304.059 334.472 304.059 334.712C304.059 334.928 304.103 335.112 304.191 335.264C304.279 335.408 304.447 335.544 304.695 335.672C304.951 335.8 305.323 335.932 305.811 336.068L306.567 336.272C307.327 336.48 307.891 336.784 308.259 337.184C308.627 337.576 308.811 338.088 308.811 338.72C308.811 339.176 308.695 339.592 308.463 339.968C308.239 340.336 307.907 340.632 307.467 340.856C307.027 341.08 306.503 341.192 305.895 341.192ZM312.179 341.156C311.555 341.156 311.063 340.96 310.703 340.568C310.351 340.168 310.175 339.612 310.175 338.9V335.06H311.291V338.672C311.291 339.68 311.687 340.184 312.479 340.184C312.903 340.184 313.267 340.02 313.571 339.692C313.875 339.356 314.091 338.936 314.219 338.432V335.06H315.335V341H314.219V339.572C314.043 340.02 313.787 340.396 313.451 340.7C313.123 341.004 312.699 341.156 312.179 341.156ZM317.278 335.06H318.394V336.464C318.586 336.032 318.862 335.664 319.222 335.36C319.582 335.056 320.03 334.904 320.566 334.904C321.182 334.904 321.646 335.092 321.958 335.468C322.278 335.844 322.438 336.352 322.438 336.992V341H321.322V337.28C321.322 336.344 320.934 335.876 320.158 335.876C319.742 335.876 319.378 336.048 319.066 336.392C318.754 336.736 318.53 337.152 318.394 337.64V341H317.278V335.06Z" fill="#616161"/>
<defs>
<linearGradient id="paint0_linear_3_2822" x1="38.1035" y1="71" x2="38.1035" y2="328.484" gradientUnits="userSpaceOnUse">
<stop stop-color="#6949FF" stop-opacity="0.24"/>
<stop offset="1" stop-color="#6949FF" stop-opacity="0"/>
</linearGradient>
</defs>
</svg>
