<svg width="24" height="24" viewBox="0 0 24 24" fill="none" xmlns="http://www.w3.org/2000/svg">
<path d="M19.633 7.99753C19.646 8.17253 19.646 8.34653 19.646 8.52053C19.646 13.8455 15.593 19.9815 8.186 19.9815C5.904 19.9815 3.784 19.3205 2 18.1725C2.324 18.2095 2.636 18.2225 2.973 18.2225C4.78599 18.2269 6.54765 17.6207 7.974 16.5015C7.13342 16.4863 6.31858 16.209 5.64324 15.7083C4.9679 15.2075 4.46578 14.5084 4.207 13.7085C4.456 13.7455 4.706 13.7705 4.968 13.7705C5.329 13.7705 5.692 13.7205 6.029 13.6335C5.11676 13.4493 4.29647 12.9549 3.70762 12.2342C3.11876 11.5136 2.79769 10.6112 2.799 9.68053V9.63053C3.336 9.92953 3.959 10.1165 4.619 10.1415C4.06609 9.77412 3.61272 9.27555 3.29934 8.69032C2.98596 8.10509 2.82231 7.45139 2.823 6.78753C2.823 6.03953 3.022 5.35353 3.371 4.75553C4.38314 6.00055 5.6455 7.01909 7.07634 7.74519C8.50717 8.47129 10.0746 8.88875 11.677 8.97053C11.615 8.67053 11.577 8.35953 11.577 8.04753C11.5767 7.51849 11.6807 6.99459 11.8831 6.50577C12.0854 6.01695 12.3821 5.57281 12.7562 5.19872C13.1303 4.82463 13.5744 4.52794 14.0632 4.32561C14.5521 4.12328 15.076 4.01927 15.605 4.01953C16.765 4.01953 17.812 4.50553 18.548 5.29153C19.4498 5.11715 20.3145 4.78795 21.104 4.31853C20.8034 5.24935 20.1738 6.03864 19.333 6.53853C20.1328 6.44731 20.9144 6.23698 21.652 5.91453C21.1011 6.71763 20.4185 7.42188 19.633 7.99753Z" fill="#007AFF"/>
</svg>
